<svg width="61" height="60" viewBox="0 0 61 60" fill="none" xmlns="http://www.w3.org/2000/svg">
<path d="M32.8857 58C37.3447 55.9031 40.9293 52.3119 43.0181 47.8491C51.0275 46.8843 57.0412 40.0676 56.9996 31.9998V30.9999C56.9965 28.2399 54.7596 26.0034 51.9999 25.9999H44.9998V21.0002C44.9998 20.4477 44.5521 20 43.9998 20H3.99993C3.44769 20 3 20.4477 3 21.0002V39C3.01252 47.1463 7.73357 54.5513 15.1138 58H3V59.9999H44.9998V58H32.8857ZM51.9999 28.0001C53.6567 28.0001 55.0001 29.3435 55.0001 30.9999V31.9998C54.9572 38.5983 50.3413 44.2836 43.8921 45.6799C44.6225 43.5282 44.9963 41.2719 44.9998 39V28.0001H51.9999ZM5.00018 39V21.9999H42.9999V39C42.9999 49.4934 34.4929 58 24.0002 58C13.5062 58 5.00018 49.4934 5.00018 39Z" fill="#1B2029"/>
<path d="M23.36 13.5658C22.1813 14.3184 21.4484 15.6026 21.3995 16.9998C21.3995 17.5521 21.8478 17.9998 22.4001 17.9998C22.952 17.9998 23.3997 17.5521 23.3997 16.9998C23.3997 16.1736 23.8249 15.782 24.6398 15.0998C25.8182 14.3475 26.5514 13.0636 26.6002 11.6661C26.552 10.2683 25.8194 8.98345 24.6398 8.23083C23.8249 7.55242 23.3997 7.15921 23.3997 6.33083C23.3997 5.50308 23.8249 5.11206 24.6398 4.43114C25.8175 3.67853 26.5495 2.39621 26.6002 0.999935C26.6002 0.447685 26.1525 0 25.6 0C25.0477 0 24.6 0.447685 24.6 0.999935C24.6 1.82706 24.1746 2.21996 23.36 2.89962C22.1813 3.65224 21.4484 4.93675 21.3995 6.33396C21.4477 7.73212 22.1803 9.01694 23.36 9.77018C24.1746 10.4495 24.6 10.8418 24.6 11.6699C24.6 12.4979 24.1746 12.8871 23.36 13.5658Z" fill="#1B2029"/>
<path d="M33.3596 13.5658C32.1809 14.3184 31.448 15.6026 31.3998 16.9998C31.3998 17.5521 31.8475 17.9998 32.3997 17.9998C32.9517 17.9998 33.4 17.5521 33.4 16.9998C33.4 16.1736 33.8245 15.782 34.64 15.0998C35.8184 14.3475 36.5513 13.0636 36.5998 11.6661C36.5519 10.2683 35.819 8.98345 34.64 8.23083C33.8245 7.55242 33.4 7.15921 33.4 6.33083C33.4 5.50308 33.8245 5.11206 34.64 4.43114C35.8172 3.67853 36.5497 2.39621 36.5998 0.999935C36.5998 0.447685 36.1521 0 35.5999 0C35.0479 0 34.6003 0.447685 34.6003 0.999935C34.6003 1.82706 34.1748 2.21996 33.3596 2.89962C32.1809 3.65224 31.448 4.93675 31.3998 6.33396C31.4477 7.73212 32.1806 9.01694 33.3596 9.77018C34.1748 10.4495 34.6003 10.8418 34.6003 11.6699C34.6003 12.4979 34.1748 12.8871 33.3596 13.5658Z" fill="#1B2029"/>
<path d="M13.3597 13.5658C12.181 14.3184 11.4481 15.6026 11.3999 16.9998C11.3999 17.5521 11.8476 17.9998 12.3998 17.9998C12.9521 17.9998 13.3998 17.5521 13.3998 16.9998C13.3998 16.1736 13.8246 15.782 14.6401 15.0998C15.8185 14.3475 16.5511 13.0636 16.5999 11.6661C16.5523 10.2683 15.8195 8.98345 14.6401 8.23083C13.8246 7.55242 13.3998 7.15921 13.3998 6.33083C13.3998 5.50308 13.8246 5.11206 14.6401 4.43114C15.8173 3.67853 16.5498 2.39621 16.5999 0.999935C16.5999 0.447685 16.1522 0 15.6003 0C15.0481 0 14.5998 0.447685 14.5998 0.999935C14.5998 1.82706 14.1749 2.21996 13.3597 2.89962C12.181 3.65224 11.4481 4.93675 11.3999 6.33396C11.4478 7.73212 12.1807 9.01694 13.3597 9.77018C14.1749 10.4495 14.5998 10.8418 14.5998 11.6699C14.5998 12.4979 14.1749 12.8871 13.3597 13.5658Z" fill="#1B2029"/>
</svg>
