<svg width="60" height="60" viewBox="0 0 60 60" fill="none" xmlns="http://www.w3.org/2000/svg">
<g clip-path="url(#clip0)">
<path d="M14.8104 27.4668C14.8104 27.8166 14.5268 28.1002 14.177 28.1002C13.8273 28.1002 13.5437 27.8166 13.5437 27.4668C13.5437 27.1171 13.8273 26.8335 14.177 26.8335C14.5268 26.8335 14.8104 27.1171 14.8104 27.4668Z" fill="#1B2029"/>
<path d="M13.5437 36.3335C13.5437 36.6833 13.2601 36.9669 12.9104 36.9669C12.5606 36.9669 12.277 36.6833 12.277 36.3335C12.277 35.9838 12.5606 35.7002 12.9104 35.7002C13.2601 35.7002 13.5437 35.9838 13.5437 36.3335Z" fill="#1B2029"/>
<path d="M28.163 13.5006C27.9336 13.1258 27.5251 12.8982 27.0859 12.9H26.8438C26.8438 11.8507 25.9934 11 24.9438 11H3.41034C2.36107 11 1.51033 11.8507 1.51033 12.9H1.2685C0.828446 12.8994 0.419622 13.127 0.188615 13.5015C-0.0423916 13.8763 -0.0624925 14.3436 0.135425 14.7366L0.943486 16.3531C1.05172 16.5664 1.27098 16.7006 1.51033 16.7H2.82278L5.31035 48.4176C5.33695 48.7472 5.6128 49.0011 5.94369 49.0002H22.4104C22.7413 49.0011 23.0175 48.7472 23.0438 48.4176L25.5317 16.7H26.8438C27.085 16.7013 27.3061 16.5655 27.414 16.3496L28.2221 14.7329C28.4188 14.3399 28.3965 13.8729 28.163 13.5006ZM3.41034 12.2667H24.9438C25.2935 12.2667 25.5771 12.5503 25.5771 12.9H2.77701C2.77701 12.5503 3.06059 12.2667 3.41034 12.2667ZM23.4684 26.8334H17.9771C17.6273 26.8334 17.3437 27.117 17.3437 27.4667C17.3437 27.8165 17.6273 28.1001 17.9771 28.1001H23.3669L22.771 35.7001H16.7104C16.3607 35.7001 16.0771 35.9837 16.0771 36.3335C16.0771 36.6832 16.3607 36.9668 16.7104 36.9668H22.6721L21.8278 47.7335H6.52662L5.68299 36.9668H10.377C10.7268 36.9668 11.0104 36.6832 11.0104 36.3335C11.0104 35.9837 10.7268 35.7001 10.377 35.7001H5.58404L4.98874 28.1001H11.6437C11.9935 28.1001 12.2771 27.8165 12.2771 27.4667C12.2771 27.117 11.9935 26.8334 11.6437 26.8334H4.88669L4.0944 16.7H24.26L23.4684 26.8334ZM26.4526 15.4334H1.90184L1.2685 14.1667H27.0859L26.4526 15.4334Z" fill="#1B2029"/>
<path d="M46.7797 27.4668C46.7797 27.8166 46.4962 28.1002 46.1464 28.1002C45.7966 28.1002 45.5131 27.8166 45.5131 27.4668C45.5131 27.1171 45.7966 26.8335 46.1464 26.8335C46.4962 26.8335 46.7797 27.1171 46.7797 27.4668Z" fill="#1B2029"/>
<path d="M45.513 36.3335C45.513 36.6833 45.2294 36.9669 44.8796 36.9669C44.5299 36.9669 44.2463 36.6833 44.2463 36.3335C44.2463 35.9838 44.5299 35.7002 44.8796 35.7002C45.2294 35.7002 45.513 35.9838 45.513 36.3335Z" fill="#1B2029"/>
<path d="M60.1324 13.5006C59.9029 13.1258 59.4944 12.8982 59.0553 12.9H58.8131C58.8131 11.8507 57.9627 11 56.9131 11H35.3796C34.3304 11 33.4796 11.8507 33.4796 12.9H33.2378C32.7977 12.8994 32.3889 13.127 32.1579 13.5015C31.9269 13.8763 31.9068 14.3436 32.1047 14.7366L32.9128 16.3531C33.021 16.5664 33.2403 16.7007 33.4796 16.7H34.7921L37.2797 48.4176C37.3063 48.7472 37.5821 49.0011 37.913 49.0002H54.3798C54.7107 49.0011 54.9868 48.7472 55.0131 48.4176L57.501 16.7H58.8131C59.0543 16.7013 59.2754 16.5655 59.3834 16.3497L60.1914 14.7329C60.3881 14.3399 60.3658 13.8729 60.1324 13.5006ZM35.3796 12.2667H56.9131C57.2629 12.2667 57.5464 12.5503 57.5464 12.9H34.7463C34.7463 12.5503 35.0299 12.2667 35.3796 12.2667ZM55.4377 26.8334H49.9464C49.5966 26.8334 49.3131 27.117 49.3131 27.4668C49.3131 27.8165 49.5966 28.1001 49.9464 28.1001H55.3363L54.7403 35.7001H48.6797C48.33 35.7001 48.0464 35.9837 48.0464 36.3335C48.0464 36.6832 48.33 36.9668 48.6797 36.9668H54.6414L53.7971 47.7335H38.4959L37.6523 36.9668H42.3464C42.6961 36.9668 42.9797 36.6832 42.9797 36.3335C42.9797 35.9837 42.6961 35.7001 42.3464 35.7001H37.5533L36.958 28.1001H43.613C43.9628 28.1001 44.2464 27.8165 44.2464 27.4668C44.2464 27.117 43.9628 26.8334 43.613 26.8334H36.856L36.0637 16.7H56.2294L55.4377 26.8334ZM58.4219 15.4334H33.8711L33.2378 14.1667H59.0553L58.4219 15.4334Z" fill="#1B2029"/>
</g>
<defs>
<clipPath id="clip0">
<rect width="60" height="60" fill="white"/>
</clipPath>
</defs>
</svg>
