<svg width="61" height="60" viewBox="0 0 61 60" fill="none" xmlns="http://www.w3.org/2000/svg">
<path d="M30.8104 27.4668C30.8104 27.8166 30.5268 28.1002 30.177 28.1002C29.8273 28.1002 29.5437 27.8166 29.5437 27.4668C29.5437 27.1171 29.8273 26.8335 30.177 26.8335C30.5268 26.8335 30.8104 27.1171 30.8104 27.4668Z" fill="#1B2029"/>
<path d="M29.5437 36.3335C29.5437 36.6833 29.2601 36.9669 28.9104 36.9669C28.5606 36.9669 28.277 36.6833 28.277 36.3335C28.277 35.9838 28.5606 35.7002 28.9104 35.7002C29.2601 35.7002 29.5437 35.9838 29.5437 36.3335Z" fill="#1B2029"/>
<path d="M44.1629 13.5006C43.9334 13.1257 43.5249 12.8981 43.0858 12.9H42.8437C42.8437 11.8507 41.9932 11 40.9437 11H19.4103C18.3611 11 17.5103 11.8507 17.5103 12.9H17.2685C16.8284 12.8994 16.4196 13.127 16.1886 13.5015C15.9576 13.8763 15.9375 14.3436 16.1354 14.7366L16.9435 16.353C17.0517 16.5664 17.271 16.7006 17.5103 16.7H18.8228L21.3103 48.4174C21.3369 48.747 21.6128 49.0009 21.9437 49H38.4103C38.7412 49.0009 39.0174 48.747 39.0437 48.4174L41.5315 16.7H42.8437C43.0849 16.7012 43.306 16.5655 43.4139 16.3496L44.222 14.7329C44.4187 14.3398 44.3964 13.8729 44.1629 13.5006ZM19.4103 12.2667H40.9437C41.2934 12.2667 41.577 12.5502 41.577 12.9H18.777C18.777 12.5502 19.0606 12.2667 19.4103 12.2667ZM39.4683 26.8333H33.977C33.6272 26.8333 33.3437 27.1169 33.3437 27.4667C33.3437 27.8164 33.6272 28.1 33.977 28.1H39.3668L38.7709 35.7H32.7103C32.3606 35.7 32.077 35.9836 32.077 36.3333C32.077 36.6831 32.3606 36.9667 32.7103 36.9667H38.672L37.8277 47.7333H22.5266L21.683 36.9667H26.377C26.7268 36.9667 27.0103 36.6831 27.0103 36.3333C27.0103 35.9836 26.7268 35.7 26.377 35.7H21.584L20.9887 28.1H27.6437C27.9934 28.1 28.277 27.8164 28.277 27.4667C28.277 27.1169 27.9934 26.8333 27.6437 26.8333H20.8867L20.0944 16.7H40.2599L39.4683 26.8333ZM42.4525 15.4333H17.9018L17.2685 14.1667H43.0858L42.4525 15.4333Z" fill="#1B2029"/>
</svg>
