<svg width="60" height="60" viewBox="0 0 60 60" fill="none" xmlns="http://www.w3.org/2000/svg">
<g clip-path="url(#clip0)">
<path d="M5 10.0001H11V12.0001C11 12.3746 11.2095 12.7179 11.5425 12.8893C11.8755 13.0606 12.2764 13.0318 12.5811 12.8141L19.5811 7.81406C19.8442 7.62656 20 7.32334 20 7.0001C20 6.67686 19.8442 6.37364 19.5811 6.18614L12.5811 1.18614C12.2764 0.968362 11.8755 0.939553 11.5425 1.11094C11.2095 1.28233 11 1.62559 11 2.0001V4.0001H5C4.44775 4.0001 4 4.44785 4 5.0001V9.0001C4 9.55235 4.44775 10.0001 5 10.0001ZM6 6.0001H12C12.5522 6.0001 13 5.55235 13 5.0001V3.94297L17.2788 7.0001L13 10.0572V9.0001C13 8.44785 12.5522 8.0001 12 8.0001H6V6.0001Z" fill="#1B2029"/>
<path d="M19.5811 52.187L12.5811 47.187C12.2764 46.9697 11.8755 46.9404 11.5425 47.1118C11.21 47.2827 11.0005 47.6254 11 47.9999V49.9999H5C4.44775 49.9999 4 50.4477 4 50.9999V54.9999C4 55.5522 4.44775 55.9999 5 55.9999H11V57.9999C11 58.5522 11.4478 58.9999 12 58.9999C12.2085 59.0004 12.4121 58.935 12.5811 58.8129L19.5811 53.8129C19.8433 53.6249 19.9985 53.3222 19.9985 52.9999C19.9985 52.6777 19.8433 52.3749 19.5811 52.187ZM13 56.0571V54.9999C13 54.4477 12.5522 53.9999 12 53.9999H6V51.9999H12C12.5522 51.9999 13 51.5522 13 50.9999V49.9428L17.2788 52.9999L13 56.0571Z" fill="#1B2029"/>
<path d="M36.77 27.9771C37.334 28.6196 38.145 28.9917 39 29H57C58.6567 29 60 27.6567 60 26V23C59.9956 19.1357 56.8643 16.0044 53 16H51V13.5762C52.8198 12.7817 53.9976 10.9858 54 9V5C53.9966 2.23975 51.7603 0.00341798 49 0H47C44.2397 0.00341798 42.0034 2.23975 42 5V9C42.0024 10.9858 43.1802 12.7817 45 13.5762V16H43C41.1196 15.9971 39.3184 16.7544 38.0049 18.1001C35.9722 17.6704 33.8862 18.5488 32.7729 20.3027C31.6592 22.0566 31.7515 24.3179 33.0049 25.9751L25.5 33.6938C24.4492 33.0635 23.1997 32.8516 22 33.1001C20.6855 31.7529 18.8818 30.9956 17 31H15V28.5762C16.8198 27.7817 17.9976 25.9858 18 24V20C17.9966 17.2397 15.7603 15.0034 13 15H11C8.23975 15.0034 6.00342 17.2397 6 20V24C6.00244 25.9858 7.18018 27.7817 9 28.5762V31H7C3.13623 31.0049 0.00488281 34.1362 0 38V42C0 43.6567 1.34326 45 3 45H21C22.2993 44.9956 23.4478 44.1533 23.8418 42.915C24.4497 42.8096 25.0327 42.5918 25.5601 42.272L32.96 51.0781C31.874 52.5591 31.6943 54.5181 32.4917 56.1719C33.2891 57.8262 34.9341 58.9053 36.769 58.978C37.3335 59.6206 38.145 59.9922 39 60H57C58.6567 60 60 58.6567 60 57V54C59.9951 50.1362 56.8638 47.0049 53 47H51V44.5762C52.8198 43.7817 53.9976 41.9858 54 40V36C53.9966 33.2397 51.7603 31.0034 49 31H47C44.2397 31.0034 42.0034 33.2397 42 36V40C42.0024 41.9858 43.1802 43.7817 45 44.5762V47H43C41.1196 46.9971 39.3184 47.7544 38.0049 49.1001C36.7803 48.8462 35.5049 49.0698 34.4399 49.7261L27.04 40.9199C28.3389 39.1621 28.3198 36.7573 26.9941 35.02L34.5 27.3062C35.1909 27.7104 35.9702 27.9404 36.77 27.9771ZM51.7192 18L50.2192 24H45.7808L44.2808 18H51.7192ZM47 2H49C50.2666 2.00537 51.3936 2.80566 51.8159 4H50.416L49.709 3.29297C49.4414 3.02539 49.0454 2.93164 48.686 3.05078L45.8379 4H44.1841C44.6064 2.80566 45.7334 2.00537 47 2ZM44 9V6H46C46.1074 6 46.2139 5.98291 46.3159 5.94922L48.729 5.14893L49.293 5.71191C49.4814 5.89795 49.7354 6.00146 50 6H52V9C52 10.6567 50.6567 12 49 12H47C45.3433 12 44 10.6567 44 9ZM47 14H49V16H47V14ZM42.2358 18.0649L44.0298 25.2432C44.1416 25.688 44.5415 26 45 26H51C51.4585 26 51.8584 25.688 51.9702 25.2432L53.7612 18.0771C56.1929 18.4517 57.9907 20.5396 58 23V26C58 26.5522 57.5522 27 57 27H39.9692C41.2427 26.0693 41.9971 24.5879 42 23.0107C42.0034 21.4331 41.2549 19.9487 39.9849 19.0132C40.6445 18.5146 41.4185 18.189 42.2358 18.0649ZM37 20C38.6567 20 40 21.3433 40 23C40 24.6567 38.6567 26 37 26C35.3433 26 34 24.6567 34 23C34 21.3433 35.3433 20 37 20ZM26 38C26 39.6567 24.6567 41 23 41C21.3433 41 20 39.6567 20 38C20 36.3433 21.3433 35 23 35C24.6567 35 26 36.3433 26 38ZM15.7202 33L14.2202 39H9.78076L8.28076 33H15.7202ZM11 17H13C14.2666 17.0054 15.3936 17.8057 15.8159 19H14.416L13.709 18.293C13.4414 18.0254 13.0454 17.9316 12.686 18.0508L9.83789 19H8.18408C8.60645 17.8057 9.7334 17.0054 11 17ZM8 24V21H10C10.1074 21 10.2139 20.9829 10.3159 20.9492L12.729 20.144L13.293 20.707C13.4805 20.8945 13.7349 21 14 21H16V24C16 25.6567 14.6567 27 13 27H11C9.34326 27 8 25.6567 8 24ZM11 29H13V31H11V29ZM3 43C2.44775 43 2 42.5522 2 42V38C2.00928 35.5396 3.80713 33.4517 6.23877 33.0771L8.02979 40.2422C8.14111 40.6875 8.54102 41 9 41H15C15.459 41 15.8589 40.6875 15.9702 40.2422L17.7642 33.0649C18.5815 33.1885 19.355 33.5151 20.0142 34.0142C18.4927 35.1377 17.7422 37.0283 18.0791 38.8892C18.416 40.7505 19.7812 42.2578 21.6001 42.7769C21.4307 42.9165 21.2192 42.9951 21 43H3ZM51.7202 49L50.2202 55H45.7808L44.2808 49H51.7202ZM47 33H49C50.2666 33.0054 51.3936 33.8057 51.8159 35H50.416L49.709 34.293C49.4419 34.0244 49.0449 33.9307 48.686 34.0518L45.8379 35H44.1841C44.6064 33.8057 45.7334 33.0054 47 33ZM44 40V37H46C46.1074 36.9995 46.2144 36.9824 46.3159 36.9482L48.729 36.1479L49.293 36.71C49.481 36.8965 49.7354 37.001 50 37H52V40C52 41.6567 50.6567 43 49 43H47C45.3433 43 44 41.6567 44 40ZM47 45H49V47H47V45ZM42.2358 49.0649L44.0298 56.2422C44.1411 56.6875 44.541 57 45 57H51C51.459 57 51.8589 56.6875 51.9702 56.2422L53.7612 49.0771C56.1929 49.4517 57.9907 51.5396 58 54V57C58 57.5522 57.5522 58 57 58H39.9692C41.2422 57.0698 41.9966 55.5884 42 54.0112C42.0034 52.4341 41.2554 50.9497 39.9858 50.0142C40.645 49.5151 41.4185 49.1885 42.2358 49.0649ZM40 54C40 55.6567 38.6567 57 37 57C35.3433 57 34 55.6567 34 54C34 52.3433 35.3433 51 37 51C38.6567 51 40 52.3433 40 54Z" fill="#1B2029"/>
</g>
<defs>
<clipPath id="clip0">
<rect width="60" height="60" fill="white"/>
</clipPath>
</defs>
</svg>
