<svg width="60" height="60" viewBox="0 0 60 60" fill="none" xmlns="http://www.w3.org/2000/svg">
<path d="M45.9469 25.793L42.1539 29.586L40.8609 28.293L39.4469 29.707L41.4469 31.707C41.8374 32.0973 42.4704 32.0973 42.8609 31.707L47.3609 27.207L45.9469 25.793Z" fill="#1B2029"/>
<path d="M30.1539 5H18.1539V7H30.1539V5Z" fill="#1B2029"/>
<path d="M36.1539 9H12.1539V11H36.1539V9Z" fill="#1B2029"/>
<path d="M30.1539 45H6.15393V47H30.1539V45Z" fill="#1B2029"/>
<path d="M30.1539 49H6.15393V51H30.1539V49Z" fill="#1B2029"/>
<path d="M57.5499 38.026L51.0189 31.5C51.2132 30.407 51.1972 29.287 50.9719 28.2L57.5539 21.617C57.9441 21.2261 57.9434 20.5929 57.5524 20.2027C57.3926 20.0431 57.1833 19.9425 56.9589 19.917L51.3889 19.3L50.7679 13.734C50.7081 13.185 50.2146 12.7884 49.6654 12.8483C49.4396 12.8729 49.2288 12.9736 49.0678 13.134L46.1538 16.046V1C46.1538 0.44775 45.7061 0 45.1538 0H3.15381C2.60156 0 2.15381 0.44775 2.15381 1V59C2.15381 59.5522 2.60156 60 3.15381 60H45.1538C45.7061 60 46.1538 59.5522 46.1538 59V43.6L49.0668 46.513C49.4581 46.9029 50.0912 46.9018 50.4811 46.5105C50.6414 46.3496 50.7422 46.1387 50.7668 45.913L51.3878 40.347L56.9548 39.726C57.5036 39.6638 57.8979 39.1684 57.8356 38.6195C57.8103 38.3951 57.7096 38.1859 57.5499 38.026ZM49.0109 16.018L49.4899 20.312C49.5422 20.7761 49.9087 21.1423 50.3729 21.194L54.6669 21.673L50.2479 26.091C49.0122 23.5362 46.6461 21.712 43.8609 21.167L49.0109 16.018ZM40.1599 38.77L35.2969 43.633L34.8179 39.339C34.7662 38.8745 34.3994 38.5078 33.9349 38.456L29.6409 37.978L33.9459 33.672C35.1047 36.2508 37.4046 38.1376 40.1599 38.77ZM29.6409 21.673L33.9349 21.194C34.3992 21.1423 34.7657 20.7761 34.8179 20.312L35.2969 16.018L40.4469 21.167C37.6618 21.712 35.2957 23.5362 34.0599 26.091L29.6409 21.673ZM35.1539 30C35.1539 26.134 38.2879 23 42.1539 23C46.0199 23 49.1539 26.134 49.1539 30C49.1489 33.8639 46.0178 36.995 42.1539 37C38.2879 37 35.1539 33.866 35.1539 30ZM44.1539 58H4.15393V2H44.1539V18H44.1999L42.1539 20.046L35.2409 13.133C34.8497 12.7431 34.2166 12.7443 33.8267 13.1355C33.6663 13.2965 33.5656 13.5072 33.5409 13.7331L32.9189 19.3001L27.3519 19.9211C26.8032 19.9835 26.4088 20.4787 26.4712 21.0276C26.4967 21.2521 26.5974 21.4612 26.7569 21.6211L33.3359 28.2001C33.1107 29.2871 33.0947 30.4071 33.2889 31.5001L26.7539 38.0331C26.3638 38.424 26.3644 39.0573 26.7554 39.4474C26.9153 39.607 27.1246 39.7076 27.3489 39.7331L32.9159 40.3541L33.5369 45.9201C33.5968 46.4691 34.0903 46.8657 34.6394 46.8059C34.8653 46.7812 35.0761 46.6805 35.2369 46.5201L42.1539 39.6001L44.1539 41.6001V58ZM50.3729 38.456C49.9084 38.5078 49.5417 38.8745 49.4899 39.339L49.0109 43.633L44.1479 38.77C46.9038 38.1371 49.2038 36.2495 50.3619 33.67L54.6669 37.976L50.3729 38.456Z" fill="#1B2029"/>
<path d="M24.1539 37H6.15393V39H24.1539V37Z" fill="#1B2029"/>
<path d="M24.1539 41H6.15393V43H24.1539V41Z" fill="#1B2029"/>
</svg>
