<svg width="24" height="24" viewBox="0 0 24 24" fill="none" xmlns="http://www.w3.org/2000/svg">
<path d="M12.0013 0.400392C5.37057 0.39771 0 5.7656 0 12.391C0 17.6302 3.35962 22.0838 8.03843 23.7194C8.66853 23.8775 8.572 23.4298 8.572 23.1241V21.0461C4.93353 21.4725 4.78606 19.0647 4.54206 18.6625C4.04871 17.8206 2.88236 17.6061 3.23092 17.2039C4.05943 16.7776 4.90403 17.3111 5.88269 18.7563C6.59055 19.8047 7.9714 19.6277 8.67121 19.4535C8.82404 18.8234 9.15116 18.2603 9.60161 17.8232C5.83175 17.1476 4.26053 14.847 4.26053 12.1122C4.26053 10.7849 4.69758 9.56495 5.55558 8.58093C5.0086 6.95877 5.60652 5.56987 5.68696 5.36341C7.24478 5.22399 8.86426 6.47882 8.99028 6.57803C9.8751 6.33939 10.8859 6.21337 12.0174 6.21337C13.1543 6.21337 14.1678 6.34476 15.0607 6.58607C15.3636 6.35548 16.8652 5.27761 18.313 5.40899C18.3908 5.61545 18.9753 6.97217 18.4605 8.57289C19.3292 9.55959 19.7716 10.7903 19.7716 12.1202C19.7716 14.8605 18.1897 17.1637 14.4091 17.8286C14.7329 18.1471 14.99 18.5268 15.1654 18.9458C15.3408 19.3647 15.431 19.8144 15.4307 20.2686V23.285C15.4521 23.5263 15.4307 23.7649 15.8329 23.7649C20.5814 22.1642 24 17.6785 24 12.3937C24 5.7656 18.6267 0.400392 12.0013 0.400392Z" fill="white"/>
</svg>
