<svg width="60" height="60" viewBox="0 0 60 60" fill="none" xmlns="http://www.w3.org/2000/svg">
<path d="M30.0034 1C13.4264 0.993299 0 14.413 0 30.9765C0 44.0745 8.39906 55.2085 20.0961 59.2974C21.6713 59.6929 21.43 58.5735 21.43 57.8093V52.6143C12.3338 53.6802 11.9651 47.6607 11.3552 46.6552C10.1218 44.5504 7.2059 44.0142 8.07731 43.0087C10.1486 41.9429 12.2601 43.2768 14.7067 46.8899C16.4764 49.5108 19.9285 49.0684 21.678 48.6327C22.0601 47.0574 22.8779 45.6498 24.004 44.5571C14.5794 42.868 10.6513 37.1166 10.6513 30.2794C10.6513 26.9613 11.7439 23.9114 13.889 21.4514C12.5215 17.3959 14.0163 13.9237 14.2174 13.4076C18.1119 13.059 22.1607 16.1961 22.4757 16.4441C24.6877 15.8475 27.2148 15.5325 30.0436 15.5325C32.8857 15.5325 35.4195 15.8609 37.6517 16.4642C38.4091 15.8877 42.1629 13.1931 45.7826 13.5215C45.977 14.0377 47.4383 17.4295 46.1513 21.4312C48.3231 23.898 49.4291 26.9748 49.4291 30.2995C49.4291 37.1502 45.4743 42.9082 36.0228 44.5706C36.8323 45.3667 37.4751 46.3161 37.9136 47.3635C38.3521 48.4108 38.5775 49.535 38.5767 50.6704V58.2115C38.6303 58.8148 38.5767 59.4114 39.5822 59.4114C51.4535 55.4096 60 44.1952 60 30.9832C60 14.413 46.5669 1 30.0034 1Z" fill="#1B2029"/>
</svg>
