<svg width="60" height="60" viewBox="0 0 60 60" fill="none" xmlns="http://www.w3.org/2000/svg">
<g clip-path="url(#clip0)">
<path d="M52.7573 38.2309C53.1452 37.8429 53.1452 37.2139 52.7573 36.8259L47.7989 31.8675C54.7767 24.144 54.1722 12.2262 46.4486 5.2483C39.2726 -1.23472 28.3542 -1.23434 21.1787 5.24929L16.2203 0.290925C15.8323 -0.0969751 15.2033 -0.0969751 14.8153 0.290925C4.3391 10.7554 4.32979 27.7313 14.7943 38.2073C19.5858 43.0042 26.0169 45.8076 32.7925 46.053V50.0634H29.8115C29.3554 50.0635 28.9581 50.3741 28.8476 50.8166L26.8603 58.7659C26.7275 59.2984 27.0515 59.8377 27.584 59.9705C27.6626 59.9901 27.7432 60 27.8242 60H39.7481C40.2969 59.9999 40.7416 59.5549 40.7415 59.0061C40.7415 58.9251 40.7316 58.8445 40.712 58.7659L38.7246 50.8166C38.6142 50.3741 38.2169 50.0635 37.7608 50.0634H34.7798V46.053C41.5468 45.8167 47.9718 43.0212 52.7573 38.2309ZM39.9112 34.9856C41.428 33.145 42.5697 31.025 43.2718 28.7454C45.5513 28.0434 47.6713 26.9017 49.512 25.3848C47.7883 29.7825 44.3088 33.262 39.9112 34.9856ZM43.9405 26.3378C44.3865 24.3388 44.6372 22.3011 44.6887 20.2536H50.5613C50.0217 22.703 47.5205 24.8821 43.9405 26.3378ZM44.6886 18.2663C44.6371 16.2187 44.3864 14.1811 43.9404 12.1821C47.5176 13.6378 50.0216 15.8169 50.5611 18.2663H44.6886ZM49.512 13.135C47.6712 11.6182 45.5513 10.4764 43.2718 9.77443C42.5697 7.49484 41.428 5.37487 39.9112 3.53424C44.3088 5.25786 47.7883 8.73742 49.512 13.135ZM34.7798 2.48493C37.2292 3.02449 39.4083 5.52553 40.864 9.10569C38.865 8.65966 36.8274 8.40901 34.7798 8.35747V2.48493ZM34.7798 10.3448C37.1066 10.4095 39.4166 10.7599 41.6579 11.3881C42.2862 13.6295 42.6366 15.9395 42.7013 18.2663H34.7798V10.3448ZM34.7798 20.2536H42.7013C42.6366 22.5804 42.2862 24.8904 41.6579 27.1317C39.4166 27.7599 37.1066 28.1103 34.7798 28.175V20.2536ZM34.7798 30.1624C36.8274 30.1108 38.865 29.8602 40.864 29.4141C39.4083 32.9943 37.2292 35.4953 34.7798 36.0349V30.1624ZM32.7925 2.48493V8.35747C30.7449 8.40901 28.7073 8.65966 26.7083 9.10569C28.1641 5.52553 30.3432 3.02449 32.7925 2.48493ZM22.8838 20.2536C22.9354 22.3011 23.186 24.3388 23.632 26.3378C20.0549 24.8821 17.5508 22.703 17.0113 20.2536H22.8838ZM17.0113 18.2663C17.5508 15.8169 20.0519 13.6378 23.632 12.1821C23.186 14.1811 22.9354 16.2187 22.8838 18.2663H17.0113ZM24.3008 28.7454C25.0028 31.025 26.1445 33.145 27.6613 34.9856C23.2638 33.262 19.7842 29.7824 18.0606 25.3848C19.9012 26.9018 22.0212 28.0434 24.3008 28.7454ZM26.7083 29.4141C28.7073 29.8602 30.7449 30.1108 32.7925 30.1624V36.0349C30.3432 35.4953 28.1641 32.9943 26.7083 29.4141ZM25.9145 27.1317C25.2862 24.8904 24.9358 22.5804 24.8711 20.2536H32.7926V28.175C30.4657 28.1103 28.1557 27.7599 25.9145 27.1317ZM24.8711 18.2663C24.9358 15.9395 25.2862 13.6295 25.9145 11.3881C28.1558 10.7599 30.4658 10.4095 32.7926 10.3448V18.2663H24.8711ZM27.6612 3.53424C26.1444 5.37499 25.0027 7.49484 24.3006 9.77443C22.0211 10.4764 19.9011 11.6182 18.0605 13.135C19.7841 8.73742 23.2636 5.25786 27.6612 3.53424ZM36.9849 52.0507L38.4754 58.0127H29.0972L30.5877 52.0507H36.9849ZM15.5326 36.1072C6.74985 26.5919 6.74948 11.9262 15.5316 2.4104L19.7755 6.65234C12.803 14.3807 13.4158 26.298 21.1442 33.2705C28.3168 39.7416 39.2211 39.7416 46.3937 33.2705L50.6357 37.5125C40.5542 46.8179 24.838 46.1888 15.5326 36.1072Z" fill="#1B2029"/>
</g>
<defs>
<clipPath id="clip0">
<rect width="60" height="60" fill="white"/>
</clipPath>
</defs>
</svg>
