<svg width="60" height="60" viewBox="0 0 60 60" fill="none" xmlns="http://www.w3.org/2000/svg">
<g clip-path="url(#clip0)">
<path d="M18 51.5005C18 52.0527 17.5522 52.5005 17 52.5005C16.4478 52.5005 16 52.0527 16 51.5005C16 50.9482 16.4478 50.5005 17 50.5005C17.5522 50.5005 18 50.9482 18 51.5005Z" fill="#1B2029"/>
<path d="M16.0002 41.501C16.0002 42.0532 15.5525 42.501 15.0002 42.501C14.448 42.501 14.0002 42.0532 14.0002 41.501C14.0002 40.9487 14.448 40.501 15.0002 40.501C15.5525 40.501 16.0002 40.9487 16.0002 41.501Z" fill="#1B2029"/>
<path d="M13.0004 50.5007H10.0005V41.501C10.0005 40.9487 9.55274 40.501 9.00051 40.501C8.44827 40.501 8.00053 40.9487 8.00053 41.501V51.5007C7.99809 51.7668 8.10258 52.0227 8.29056 52.2107C8.47855 52.3991 8.73489 52.5036 9.00051 52.5007H13.0004C13.5526 52.5007 14.0004 52.0529 14.0004 51.5007C14.0004 50.9485 13.5526 50.5007 13.0004 50.5007Z" fill="#1B2029"/>
<path d="M20.9997 40.5005H18.9997C18.4475 40.5005 17.9998 40.9483 17.9998 41.5005C17.9998 42.0527 18.4475 42.5005 18.9997 42.5005H19.9997V49.5003C19.9997 50.0526 20.4475 50.5003 20.9997 50.5003C21.5519 50.5003 21.9997 50.0526 21.9997 49.5003V41.5005C22.0026 41.2344 21.8981 40.9785 21.7101 40.7906C21.5217 40.6026 21.2658 40.4981 20.9997 40.5005Z" fill="#1B2029"/>
<path d="M50.9992 40.5005H48.9992C48.447 40.5005 47.9993 40.9483 47.9993 41.5005C47.9993 42.0527 48.447 42.5005 48.9992 42.5005H49.9992V49.5003C49.9992 50.0526 50.447 50.5003 50.9992 50.5003C51.5515 50.5003 51.9992 50.0526 51.9992 49.5003V41.5005C52.0021 41.2344 51.8976 40.9785 51.7097 40.7906C51.5212 40.6026 51.2653 40.4981 50.9992 40.5005Z" fill="#1B2029"/>
<path d="M42.9994 50.5008H39.9995V41.501C39.9995 40.9487 39.5517 40.501 38.9995 40.501C38.4473 40.501 37.9995 40.9487 37.9995 41.501V51.5007C37.999 51.7664 38.103 52.0217 38.2895 52.2107C38.478 52.3987 38.7339 52.5032 38.9995 52.5007H42.9994C43.5516 52.5007 43.9994 52.053 43.9994 51.5007C43.9994 50.9485 43.5516 50.5008 42.9994 50.5008Z" fill="#1B2029"/>
<path d="M47.9995 51.5005C47.9995 52.0527 47.5518 52.5005 46.9995 52.5005C46.4473 52.5005 45.9995 52.0527 45.9995 51.5005C45.9995 50.9482 46.4473 50.5005 46.9995 50.5005C47.5518 50.5005 47.9995 50.9482 47.9995 51.5005Z" fill="#1B2029"/>
<path d="M45.9993 41.501C45.9993 42.0532 45.5515 42.501 44.9993 42.501C44.447 42.501 43.9993 42.0532 43.9993 41.501C43.9993 40.9487 44.447 40.501 44.9993 40.501C45.5515 40.501 45.9993 40.9487 45.9993 41.501Z" fill="#1B2029"/>
<path d="M58.9991 40.5009C58.4469 40.5009 57.9992 40.9486 57.9992 41.5009V43.0868L55.9992 45.0867V41.5009C55.9963 38.7412 53.7595 36.5044 50.9993 36.501H38.9996C36.2399 36.5044 34.0031 38.7412 33.9997 41.5009V45.5008H25.9999V41.5009C25.997 38.7412 23.7602 36.5044 21 36.501H9.00028C6.24058 36.5044 4.00381 38.7412 4.0004 41.5009V45.0867L2.00044 43.0868V41.5009C2.00044 40.9486 1.5527 40.5009 1.00047 40.5009C0.448232 40.5009 0.000488281 40.9486 0.000488281 41.5009V43.5008C0.000976551 43.7659 0.105955 44.0203 0.29345 44.2078L4.0004 47.9148V51.5006C4.00381 54.2608 6.24058 56.4971 9.00028 56.5005H21C23.7602 56.4971 25.997 54.2608 25.9999 51.5006V47.5007H33.9997V51.5006C34.0031 54.2608 36.2399 56.4971 38.9996 56.5005H50.9993C53.7595 56.4971 55.9963 54.2608 55.9992 51.5006V47.9148L59.7062 44.2078C59.8937 44.0203 59.9991 43.7659 59.9991 43.5008V41.5009C59.9991 40.9486 59.5514 40.5009 58.9991 40.5009ZM23.9999 51.5006C23.9999 53.1573 22.6572 54.5006 21 54.5006H9.00028C7.34358 54.5006 6.00035 53.1573 6.00035 51.5006V41.5009C6.00035 39.8442 7.34358 38.5009 9.00028 38.5009H21C22.6572 38.5009 23.9999 39.8442 23.9999 41.5009V51.5006ZM53.9993 51.5006C53.9993 53.1573 52.6565 54.5006 50.9993 54.5006H38.9996C37.3429 54.5006 35.9997 53.1573 35.9997 51.5006V41.5009C35.9997 39.8442 37.3429 38.5009 38.9996 38.5009H50.9993C52.6565 38.5009 53.9993 39.8442 53.9993 41.5009V51.5006Z" fill="#1B2029"/>
<path d="M0.517566 21.3772L9.00028 26.0572V32.5009C9.00028 33.0532 9.44803 33.5009 10.0003 33.5009H22.4912L29.5169 37.3768C29.8177 37.5428 30.1824 37.5428 30.4832 37.3768L37.5089 33.5009H49.9994C50.5516 33.5009 50.9993 33.0532 50.9993 32.5009V26.0572L54.9992 23.8512V28.168L52.1995 31.9008C51.9725 32.2041 51.9358 32.6093 52.1053 32.9482C52.2747 33.287 52.6209 33.5009 52.9993 33.5009H58.9992C59.378 33.5009 59.7242 33.287 59.8937 32.9482C60.0631 32.6093 60.0265 32.2041 59.7994 31.9008L56.9992 28.168V22.7472L59.4825 21.3772C59.8019 21.2014 60.0001 20.8659 60.0001 20.5012C60.0001 20.1369 59.8019 19.801 59.4825 19.6252L30.4832 3.62561C30.1824 3.46008 29.8177 3.46008 29.5169 3.62561L0.517566 19.6252C0.198238 19.801 0 20.1369 0 20.5012C0 20.8659 0.198238 21.2014 0.517566 21.3772ZM11.0002 31.5009V27.1612L18.8663 31.5009H11.0002ZM48.9994 31.5009H41.1338L48.9994 27.1612V31.5009ZM54.9992 31.5009L55.9992 30.168L56.9992 31.5009H54.9992ZM29.9998 5.6446L56.9294 20.5012L29.9998 35.3578L3.07073 20.5012L29.9998 5.6446Z" fill="#1B2029"/>
<path d="M35.0599 13.0012C35.2083 13.0881 35.3777 13.1335 35.5501 13.1311C35.9138 13.1306 36.2478 12.9309 36.4202 12.6101C36.5491 12.3792 36.5818 12.1062 36.51 11.8514C36.4334 11.597 36.2615 11.3816 36.0301 11.2513L32.5301 9.32065C32.5116 9.31333 32.4945 9.30356 32.4789 9.29135L30.4789 8.19128C30.1791 8.03259 29.8202 8.03259 29.5199 8.19128L26.3101 9.96126C26.0732 10.0853 25.8989 10.303 25.8301 10.5613C25.7603 10.8152 25.7891 11.0862 25.9102 11.3206C26.188 11.7967 26.7925 11.9695 27.2802 11.7112L29.9999 10.2113L35.0599 13.0012Z" fill="#1B2029"/>
<path d="M43.8189 17.8417L48.6489 20.5013L47.8989 20.9115C47.415 21.1781 47.2363 21.785 47.4985 22.2713C47.6772 22.5901 48.0132 22.7884 48.3789 22.7913C48.5459 22.7918 48.7104 22.7508 48.8579 22.6712L51.1986 21.3714C51.5185 21.1986 51.7177 20.8646 51.7187 20.5013C51.7157 20.1361 51.5175 19.8002 51.1986 19.6215L44.7886 16.0815C44.3018 15.8271 43.7008 16.0039 43.4288 16.4814C43.2994 16.7133 43.2672 16.9868 43.339 17.2426C43.4151 17.497 43.587 17.7118 43.8189 17.8417Z" fill="#1B2029"/>
<path d="M30.87 32.4513C31.0375 32.4523 31.2025 32.4108 31.3499 32.3312L40.109 27.5012C40.3385 27.3708 40.5075 27.1555 40.5797 26.9011C40.6598 26.6482 40.6305 26.3733 40.4996 26.1423C40.2238 25.6702 39.6276 25.4949 39.1398 25.7425L30.3802 30.5822C29.9012 30.8532 29.7279 31.4577 29.9901 31.941C30.1713 32.2565 30.5067 32.4508 30.87 32.4513Z" fill="#1B2029"/>
<path d="M18.9901 15.9516C19.0692 15.6977 19.0404 15.4223 18.91 15.1904C18.6371 14.7148 18.0375 14.5385 17.5502 14.7905L8.80039 19.6214C8.56553 19.7484 8.39219 19.9647 8.31944 20.2215C8.24034 20.4744 8.26915 20.7493 8.39952 20.9803C8.57627 21.3016 8.91366 21.5008 9.28035 21.5013C9.4493 21.5032 9.61531 21.4583 9.76032 21.3714L18.5199 16.5517C18.7494 16.4208 18.9183 16.2055 18.9901 15.9516Z" fill="#1B2029"/>
<path d="M22.6003 26.7013L13.8407 21.8714C13.3524 21.6238 12.7563 21.7991 12.4794 22.2713C12.3515 22.5022 12.3207 22.7742 12.394 23.0276C12.4672 23.281 12.6391 23.4949 12.8705 23.6213L21.6306 28.4513C21.7751 28.5382 21.9406 28.5831 22.1096 28.5812C22.4758 28.5812 22.8132 28.382 22.9904 28.0612C23.1208 27.8297 23.1496 27.5543 23.0695 27.3014C22.9982 27.047 22.8298 26.8317 22.6003 26.7013Z" fill="#1B2029"/>
<path d="M23 13.5015C23 14.0537 22.5522 14.5015 22 14.5015C21.4478 14.5015 21 14.0537 21 13.5015C21 12.9492 21.4478 12.5015 22 12.5015C22.5522 12.5015 23 12.9492 23 13.5015Z" fill="#1B2029"/>
<path d="M40.9995 14.5015C40.9995 15.0537 40.5518 15.5015 39.9995 15.5015C39.4473 15.5015 38.9995 15.0537 38.9995 14.5015C38.9995 13.9492 39.4473 13.5015 39.9995 13.5015C40.5518 13.5015 40.9995 13.9492 40.9995 14.5015Z" fill="#1B2029"/>
<path d="M43.9995 24.501C43.9995 25.0532 43.5518 25.501 42.9995 25.501C42.4473 25.501 41.9995 25.0532 41.9995 24.501C41.9995 23.9487 42.4473 23.501 42.9995 23.501C43.5518 23.501 43.9995 23.9487 43.9995 24.501Z" fill="#1B2029"/>
<path d="M27 29.501C27 30.0532 26.5522 30.501 26 30.501C25.4478 30.501 25 30.0532 25 29.501C25 28.9487 25.4478 28.501 26 28.501C26.5522 28.501 27 28.9487 27 29.501Z" fill="#1B2029"/>
</g>
<defs>
<clipPath id="clip0">
<rect width="60" height="60" fill="white"/>
</clipPath>
</defs>
</svg>
