<svg width="90" height="90" viewBox="0 0 90 90" fill="none" xmlns="http://www.w3.org/2000/svg">
<circle cx="45" cy="45" r="45" fill="#F8DF2A"/>
<g clip-path="url(#clip0)">
<path d="M33 66.5005C33 67.0527 32.5522 67.5005 32 67.5005C31.4478 67.5005 31 67.0527 31 66.5005C31 65.9482 31.4478 65.5005 32 65.5005C32.5522 65.5005 33 65.9482 33 66.5005Z" fill="#1B2029"/>
<path d="M31.0002 56.501C31.0002 57.0532 30.5525 57.501 30.0002 57.501C29.448 57.501 29.0002 57.0532 29.0002 56.501C29.0002 55.9487 29.448 55.501 30.0002 55.501C30.5525 55.501 31.0002 55.9487 31.0002 56.501Z" fill="#1B2029"/>
<path d="M28.0004 65.5007H25.0005V56.501C25.0005 55.9487 24.5527 55.501 24.0005 55.501C23.4483 55.501 23.0005 55.9487 23.0005 56.501V66.5007C22.9981 66.7668 23.1026 67.0227 23.2906 67.2107C23.4785 67.3991 23.7349 67.5036 24.0005 67.5007H28.0004C28.5526 67.5007 29.0004 67.0529 29.0004 66.5007C29.0004 65.9485 28.5526 65.5007 28.0004 65.5007Z" fill="#1B2029"/>
<path d="M35.9997 55.5005H33.9997C33.4475 55.5005 32.9998 55.9483 32.9998 56.5005C32.9998 57.0527 33.4475 57.5005 33.9997 57.5005H34.9997V64.5003C34.9997 65.0526 35.4475 65.5003 35.9997 65.5003C36.5519 65.5003 36.9997 65.0526 36.9997 64.5003V56.5005C37.0026 56.2344 36.8981 55.9785 36.7101 55.7906C36.5217 55.6026 36.2658 55.4981 35.9997 55.5005Z" fill="#1B2029"/>
<path d="M65.9992 55.5005H63.9992C63.447 55.5005 62.9993 55.9483 62.9993 56.5005C62.9993 57.0527 63.447 57.5005 63.9992 57.5005H64.9992V64.5003C64.9992 65.0526 65.447 65.5003 65.9992 65.5003C66.5515 65.5003 66.9992 65.0526 66.9992 64.5003V56.5005C67.0021 56.2344 66.8976 55.9785 66.7097 55.7906C66.5212 55.6026 66.2653 55.4981 65.9992 55.5005Z" fill="#1B2029"/>
<path d="M57.9994 65.5008H54.9995V56.501C54.9995 55.9487 54.5517 55.501 53.9995 55.501C53.4473 55.501 52.9995 55.9487 52.9995 56.501V66.5007C52.999 66.7664 53.103 67.0217 53.2895 67.2107C53.478 67.3987 53.7339 67.5032 53.9995 67.5007H57.9994C58.5516 67.5007 58.9994 67.053 58.9994 66.5007C58.9994 65.9485 58.5516 65.5008 57.9994 65.5008Z" fill="#1B2029"/>
<path d="M62.9995 66.5005C62.9995 67.0527 62.5518 67.5005 61.9995 67.5005C61.4473 67.5005 60.9995 67.0527 60.9995 66.5005C60.9995 65.9482 61.4473 65.5005 61.9995 65.5005C62.5518 65.5005 62.9995 65.9482 62.9995 66.5005Z" fill="#1B2029"/>
<path d="M60.9993 56.501C60.9993 57.0532 60.5515 57.501 59.9993 57.501C59.447 57.501 58.9993 57.0532 58.9993 56.501C58.9993 55.9487 59.447 55.501 59.9993 55.501C60.5515 55.501 60.9993 55.9487 60.9993 56.501Z" fill="#1B2029"/>
<path d="M73.9991 55.5009C73.4469 55.5009 72.9992 55.9486 72.9992 56.5009V58.0868L70.9992 60.0867V56.5009C70.9963 53.7412 68.7595 51.5044 65.9993 51.501H53.9996C51.2399 51.5044 49.0031 53.7412 48.9997 56.5009V60.5008H40.9999V56.5009C40.997 53.7412 38.7602 51.5044 36 51.501H24.0003C21.2406 51.5044 19.0038 53.7412 19.0004 56.5009V60.0867L17.0004 58.0868V56.5009C17.0004 55.9486 16.5527 55.5009 16.0005 55.5009C15.4482 55.5009 15.0005 55.9486 15.0005 56.5009V58.5008C15.001 58.7659 15.106 59.0203 15.2935 59.2078L19.0004 62.9148V66.5006C19.0038 69.2608 21.2406 71.4971 24.0003 71.5005H36C38.7602 71.4971 40.997 69.2608 40.9999 66.5006V62.5007H48.9997V66.5006C49.0031 69.2608 51.2399 71.4971 53.9996 71.5005H65.9993C68.7595 71.4971 70.9963 69.2608 70.9992 66.5006V62.9148L74.7062 59.2078C74.8937 59.0203 74.9991 58.7659 74.9991 58.5008V56.5009C74.9991 55.9486 74.5514 55.5009 73.9991 55.5009ZM38.9999 66.5006C38.9999 68.1573 37.6572 69.5006 36 69.5006H24.0003C22.3436 69.5006 21.0004 68.1573 21.0004 66.5006V56.5009C21.0004 54.8442 22.3436 53.5009 24.0003 53.5009H36C37.6572 53.5009 38.9999 54.8442 38.9999 56.5009V66.5006ZM68.9993 66.5006C68.9993 68.1573 67.6565 69.5006 65.9993 69.5006H53.9996C52.3429 69.5006 50.9997 68.1573 50.9997 66.5006V56.5009C50.9997 54.8442 52.3429 53.5009 53.9996 53.5009H65.9993C67.6565 53.5009 68.9993 54.8442 68.9993 56.5009V66.5006Z" fill="#1B2029"/>
<path d="M15.5176 36.3772L24.0003 41.0572V47.5009C24.0003 48.0532 24.448 48.5009 25.0003 48.5009H37.4912L44.5169 52.3768C44.8177 52.5428 45.1824 52.5428 45.4832 52.3768L52.5089 48.5009H64.9994C65.5516 48.5009 65.9993 48.0532 65.9993 47.5009V41.0572L69.9992 38.8512V43.168L67.1995 46.9008C66.9725 47.2041 66.9358 47.6093 67.1053 47.9482C67.2747 48.287 67.6209 48.5009 67.9993 48.5009H73.9992C74.378 48.5009 74.7242 48.287 74.8937 47.9482C75.0631 47.6093 75.0265 47.2041 74.7994 46.9008L71.9992 43.168V37.7472L74.4825 36.3772C74.8019 36.2014 75.0001 35.8659 75.0001 35.5012C75.0001 35.1369 74.8019 34.801 74.4825 34.6252L45.4832 18.6256C45.1824 18.4601 44.8177 18.4601 44.5169 18.6256L15.5176 34.6252C15.1982 34.801 15 35.1369 15 35.5012C15 35.8659 15.1982 36.2014 15.5176 36.3772ZM26.0002 46.5009V42.1612L33.8663 46.5009H26.0002ZM63.9994 46.5009H56.1338L63.9994 42.1612V46.5009ZM69.9992 46.5009L70.9992 45.168L71.9992 46.5009H69.9992ZM44.9998 20.6446L71.9294 35.5012L44.9998 50.3578L18.0707 35.5012L44.9998 20.6446Z" fill="#1B2029"/>
<path d="M50.0599 28.0012C50.2083 28.0881 50.3777 28.1335 50.5501 28.1311C50.9138 28.1306 51.2478 27.9309 51.4202 27.6101C51.5491 27.3792 51.5818 27.1062 51.51 26.8514C51.4334 26.597 51.2615 26.3816 51.0301 26.2513L47.5301 24.3206C47.5116 24.3133 47.4945 24.3036 47.4789 24.2914L45.4789 23.1913C45.1791 23.0326 44.8202 23.0326 44.5199 23.1913L41.3101 24.9613C41.0732 25.0853 40.8989 25.303 40.8301 25.5613C40.7603 25.8152 40.7891 26.0862 40.9102 26.3206C41.188 26.7967 41.7925 26.9695 42.2802 26.7112L44.9999 25.2113L50.0599 28.0012Z" fill="#1B2029"/>
<path d="M58.8189 32.8417L63.6489 35.5013L62.8989 35.9115C62.415 36.1781 62.2363 36.785 62.4985 37.2713C62.6772 37.5901 63.0132 37.7884 63.3789 37.7913C63.5459 37.7918 63.7104 37.7508 63.8579 37.6712L66.1986 36.3714C66.5185 36.1986 66.7177 35.8646 66.7187 35.5013C66.7157 35.1361 66.5175 34.8002 66.1986 34.6215L59.7886 31.0815C59.3018 30.8271 58.7008 31.0039 58.4288 31.4814C58.2994 31.7133 58.2672 31.9868 58.339 32.2426C58.4151 32.497 58.587 32.7118 58.8189 32.8417Z" fill="#1B2029"/>
<path d="M45.87 47.4513C46.0375 47.4523 46.2025 47.4108 46.3499 47.3312L55.109 42.5012C55.3385 42.3708 55.5075 42.1555 55.5797 41.9011C55.6598 41.6482 55.6305 41.3733 55.4996 41.1423C55.2238 40.6702 54.6276 40.4949 54.1398 40.7425L45.3802 45.5822C44.9012 45.8532 44.7279 46.4577 44.9901 46.941C45.1713 47.2565 45.5067 47.4508 45.87 47.4513Z" fill="#1B2029"/>
<path d="M33.9901 30.9516C34.0692 30.6977 34.0404 30.4223 33.91 30.1904C33.6371 29.7148 33.0375 29.5385 32.5502 29.7905L23.8004 34.6214C23.5655 34.7484 23.3922 34.9647 23.3194 35.2215C23.2403 35.4744 23.2691 35.7493 23.3995 35.9803C23.5763 36.3016 23.9137 36.5008 24.2804 36.5013C24.4493 36.5032 24.6153 36.4583 24.7603 36.3714L33.5199 31.5517C33.7494 31.4208 33.9183 31.2055 33.9901 30.9516Z" fill="#1B2029"/>
<path d="M37.6003 41.7013L28.8407 36.8714C28.3524 36.6238 27.7563 36.7991 27.4794 37.2713C27.3515 37.5022 27.3207 37.7742 27.394 38.0276C27.4672 38.281 27.6391 38.4949 27.8705 38.6213L36.6306 43.4513C36.7751 43.5382 36.9406 43.5831 37.1096 43.5812C37.4758 43.5812 37.8132 43.382 37.9904 43.0612C38.1208 42.8297 38.1496 42.5543 38.0695 42.3014C37.9982 42.047 37.8298 41.8317 37.6003 41.7013Z" fill="#1B2029"/>
<path d="M38 28.5015C38 29.0537 37.5522 29.5015 37 29.5015C36.4478 29.5015 36 29.0537 36 28.5015C36 27.9492 36.4478 27.5015 37 27.5015C37.5522 27.5015 38 27.9492 38 28.5015Z" fill="#1B2029"/>
<path d="M55.9995 29.5015C55.9995 30.0537 55.5518 30.5015 54.9995 30.5015C54.4473 30.5015 53.9995 30.0537 53.9995 29.5015C53.9995 28.9492 54.4473 28.5015 54.9995 28.5015C55.5518 28.5015 55.9995 28.9492 55.9995 29.5015Z" fill="#1B2029"/>
<path d="M58.9995 39.501C58.9995 40.0532 58.5518 40.501 57.9995 40.501C57.4473 40.501 56.9995 40.0532 56.9995 39.501C56.9995 38.9487 57.4473 38.501 57.9995 38.501C58.5518 38.501 58.9995 38.9487 58.9995 39.501Z" fill="#1B2029"/>
<path d="M42 44.501C42 45.0532 41.5522 45.501 41 45.501C40.4478 45.501 40 45.0532 40 44.501C40 43.9487 40.4478 43.501 41 43.501C41.5522 43.501 42 43.9487 42 44.501Z" fill="#1B2029"/>
</g>
<defs>
<clipPath id="clip0">
<rect width="60" height="60" fill="white" transform="translate(15 15)"/>
</clipPath>
</defs>
</svg>
