<svg width="60" height="60" viewBox="0 0 60 60" fill="none" xmlns="http://www.w3.org/2000/svg">
<path d="M42.6306 23.7909V23.8011C42.6964 24.3259 43.1441 24.7192 43.673 24.7171C43.7152 24.7186 43.7578 24.7156 43.799 24.7068C44.3777 24.6369 44.79 24.1111 44.7201 23.5328C44.6507 22.9546 44.1248 22.5418 43.5466 22.6117C42.9699 22.6878 42.5617 23.2131 42.6306 23.7909Z" fill="#1B2029"/>
<path d="M43.0306 29.5594C42.493 29.3497 41.8854 29.6 41.6516 30.1279C41.0969 31.4581 40.3172 32.6835 39.3462 33.749L39.338 33.7639C38.6863 34.4799 37.9548 35.1194 37.1581 35.6688C36.6791 35.9993 36.5588 36.6552 36.8888 37.1338C37.2193 37.6128 37.8752 37.7331 38.3537 37.4026C39.2882 36.758 40.1455 36.0076 40.9088 35.1672C42.0371 33.9228 42.9448 32.4954 43.593 30.9456C43.8186 30.4075 43.5673 29.7881 43.0306 29.5594Z" fill="#1B2029"/>
<path d="M17.4504 23.2853C17.893 19.6616 19.8765 16.4043 22.8927 14.3478C23.1245 14.192 23.2849 13.9499 23.3383 13.6755C23.3918 13.401 23.3337 13.1162 23.1769 12.8849C22.8403 12.4182 22.1967 12.2979 21.7136 12.6109C18.1854 14.999 15.8693 18.8021 15.3661 23.0324C15.3322 23.3095 15.4077 23.5891 15.5768 23.8116C15.7537 24.028 16.005 24.1709 16.2821 24.2115H16.408C16.9395 24.21 17.3867 23.8127 17.4504 23.2853Z" fill="#1B2029"/>
<path d="M33.2095 13.0428C36.7387 13.9793 39.6926 16.3926 41.3148 19.6642C41.4948 20.0215 41.8623 20.2456 42.2622 20.243C42.423 20.2471 42.5824 20.2106 42.7253 20.1376C43.247 19.8801 43.4629 19.2505 43.21 18.7272C42.0823 16.462 40.3932 14.5231 38.3043 13.0952C36.917 12.1418 35.3745 11.4365 33.7461 11.0109C33.1838 10.8701 32.6107 11.2006 32.4513 11.7583C32.383 12.0297 32.4246 12.3175 32.567 12.5586C32.7073 12.7997 32.9386 12.9744 33.2095 13.0428Z" fill="#1B2029"/>
<path d="M20.6487 33.7522C20.2581 33.3215 19.5919 33.2891 19.1612 33.6798C18.7304 34.0704 18.6981 34.7361 19.0887 35.1673C19.8515 36.0077 20.7089 36.7582 21.6433 37.4027C22.1224 37.7338 22.7782 37.6135 23.1087 37.1344C23.4392 36.6559 23.319 35.9995 22.8404 35.669C22.0386 35.1164 21.303 34.4734 20.6487 33.7522Z" fill="#1B2029"/>
<path d="M48.9468 25.2646C48.951 16.5327 42.9875 8.92902 34.5064 6.85192C26.0253 4.77482 17.2229 8.76197 13.1911 16.507C9.15921 24.252 10.9423 33.7498 17.5087 39.5052C17.4193 39.6558 17.3699 39.8269 17.3663 40.0022V48.4237C17.3699 51.3293 19.7246 53.6835 22.6298 53.6871H22.7141C23.2342 57.3103 26.3383 60.0001 29.9985 60.0001C33.6588 60.0001 36.7629 57.3103 37.283 53.6871H37.3673C40.273 53.6835 42.6271 51.3293 42.6307 48.4237V40.0022C42.6271 39.8269 42.5783 39.6558 42.4889 39.5052C46.5912 35.9092 48.9443 30.7198 48.9468 25.2646ZM13.1556 25.2646C13.1499 17.2955 18.7305 10.4135 26.5285 8.77122C34.3265 7.12948 42.2077 11.1773 45.4161 18.472C48.6246 25.7668 46.2817 34.3116 39.8011 38.9495H20.1959C15.7811 35.7889 13.1602 30.6941 13.1556 25.2646ZM40.5254 41.0549V43.1603H19.4717V41.0549H40.5254ZM19.4717 45.2656H40.5254V47.371H19.4717V45.2656ZM29.9985 57.8978C27.4984 57.8947 25.3442 56.1363 24.8405 53.6871H35.1566C34.6529 56.1363 32.4987 57.8947 29.9985 57.8978ZM37.3673 51.5817H22.6298C21.2918 51.5802 20.0993 50.7372 19.6516 49.4764H40.3455C39.8978 50.7372 38.7053 51.5802 37.3673 51.5817Z" fill="#1B2029"/>
<path d="M29.9985 5.26342C30.5798 5.26342 31.0512 4.79207 31.0512 4.21073V1.05268C31.0512 0.471343 30.5798 0 29.9985 0C29.4171 0 28.9458 0.471343 28.9458 1.05268V4.21073C28.9458 4.79207 29.4171 5.26342 29.9985 5.26342Z" fill="#1B2029"/>
<path d="M14.3671 11.1216C14.6318 11.3956 15.023 11.505 15.391 11.4089C15.759 11.3123 16.0464 11.025 16.143 10.6569C16.2391 10.2889 16.1296 9.89724 15.8557 9.63304L13.9302 7.70757C13.5174 7.30871 12.8605 7.31436 12.455 7.72042C12.0489 8.12649 12.0428 8.78339 12.4421 9.19613L14.3671 11.1216Z" fill="#1B2029"/>
<path d="M5.78681 26.3173H8.94487C9.52621 26.3173 9.99755 25.8459 9.99755 25.2646C9.99755 24.6833 9.52621 24.2119 8.94487 24.2119H5.78681C5.20547 24.2119 4.73413 24.6833 4.73413 25.2646C4.73413 25.8459 5.20547 26.3173 5.78681 26.3173Z" fill="#1B2029"/>
<path d="M13.1865 43.13C13.4656 43.1294 13.7329 43.0189 13.9302 42.8216L15.8557 40.8961C16.1297 40.6319 16.2392 40.2402 16.143 39.8722C16.0464 39.5041 15.7591 39.2168 15.3911 39.1202C15.023 39.0241 14.6319 39.1335 14.3672 39.4075L12.4422 41.333C12.141 41.6337 12.051 42.0865 12.214 42.4797C12.3769 42.873 12.7604 43.1294 13.1865 43.13Z" fill="#1B2029"/>
<path d="M44.1414 39.407C43.7302 39.8182 43.7302 40.4844 44.1414 40.8956L46.0669 42.8211C46.3311 43.0945 46.7222 43.204 47.0903 43.1079C47.4588 43.0118 47.7461 42.7239 47.8422 42.3559C47.9389 41.9879 47.8289 41.5967 47.5554 41.3325L45.63 39.407C45.2188 38.9958 44.5526 38.9958 44.1414 39.407Z" fill="#1B2029"/>
<path d="M51.0519 26.3173H54.21C54.7913 26.3173 55.2627 25.8459 55.2627 25.2646C55.2627 24.6833 54.7913 24.2119 54.21 24.2119H51.0519C50.4706 24.2119 49.9993 24.6833 49.9993 25.2646C49.9993 25.8459 50.4706 26.3173 51.0519 26.3173Z" fill="#1B2029"/>
<path d="M44.8857 11.4302C45.1648 11.4302 45.4326 11.3192 45.63 11.1218L47.5555 9.19635C47.8289 8.93215 47.9389 8.54099 47.8423 8.17296C47.7461 7.80493 47.4588 7.51709 47.0903 7.42097C46.7222 7.32485 46.3311 7.43434 46.0669 7.70779L44.1414 9.63325C43.8402 9.93446 43.7503 10.3873 43.9132 10.7805C44.0761 11.1737 44.4601 11.4302 44.8857 11.4302Z" fill="#1B2029"/>
<path d="M27.8932 11.5795C27.8932 12.1609 27.4219 12.6322 26.8405 12.6322C26.2592 12.6322 25.7878 12.1609 25.7878 11.5795C25.7878 10.9982 26.2592 10.5269 26.8405 10.5269C27.4219 10.5269 27.8932 10.9982 27.8932 11.5795Z" fill="#1B2029"/>
<path d="M18.4191 30.5278C18.4191 31.1091 17.9477 31.5805 17.3664 31.5805C16.7851 31.5805 16.3137 31.1091 16.3137 30.5278C16.3137 29.9464 16.7851 29.4751 17.3664 29.4751C17.9477 29.4751 18.4191 29.9464 18.4191 30.5278Z" fill="#1B2029"/>
</svg>
