<svg width="60" height="60" viewBox="0 0 60 60" fill="none" xmlns="http://www.w3.org/2000/svg">
<path d="M54.375 7.5C54.0583 7.50487 53.7434 7.54895 53.4375 7.63125V4.6875C53.4353 3.94226 53.1382 3.22819 52.6113 2.70122C52.0843 2.17426 51.3702 1.87723 50.625 1.875H9.375C8.62977 1.87723 7.91569 2.17426 7.38872 2.70122C6.86176 3.22819 6.56473 3.94226 6.5625 4.6875V7.63125C6.25662 7.54895 5.94172 7.50487 5.625 7.5C4.63044 7.5 3.67661 7.89509 2.97335 8.59835C2.27009 9.30161 1.875 10.2554 1.875 11.25V38.4375C1.87449 38.6493 1.94738 38.8547 2.08125 39.0187L8.37188 46.8844C8.13639 46.9009 7.91581 47.0056 7.75418 47.1777C7.59255 47.3497 7.50178 47.5764 7.5 47.8125V51.5625C7.5 51.8111 7.59877 52.0496 7.77459 52.2254C7.95041 52.4012 8.18886 52.5 8.4375 52.5H9.00938L7.54688 56.8875C7.50039 57.0285 7.48804 57.1785 7.51086 57.3252C7.53368 57.4719 7.59101 57.611 7.67813 57.7313C7.76345 57.8534 7.87711 57.953 8.00936 58.0216C8.14162 58.0901 8.28853 58.1256 8.4375 58.125H23.4375C23.6861 58.125 23.9246 58.0262 24.1004 57.8504C24.2762 57.6746 24.375 57.4361 24.375 57.1875V52.5H25.3125C25.5611 52.5 25.7996 52.4012 25.9754 52.2254C26.1512 52.0496 26.25 51.8111 26.25 51.5625V47.8125C26.25 47.5639 26.1512 47.3254 25.9754 47.1496C25.7996 46.9738 25.5611 46.875 25.3125 46.875H24.8813L26.1281 44.0625H33.8719L35.1188 46.875H34.6875C34.4389 46.875 34.2004 46.9738 34.0246 47.1496C33.8488 47.3254 33.75 47.5639 33.75 47.8125V51.5625C33.75 51.8111 33.8488 52.0496 34.0246 52.2254C34.2004 52.4012 34.4389 52.5 34.6875 52.5H35.625V57.1875C35.625 57.4361 35.7238 57.6746 35.8996 57.8504C36.0754 58.0262 36.3139 58.125 36.5625 58.125H51.5625C51.7115 58.1256 51.8584 58.0901 51.9906 58.0216C52.1229 57.953 52.2366 57.8534 52.3219 57.7313C52.409 57.611 52.4663 57.4719 52.4891 57.3252C52.512 57.1785 52.4996 57.0285 52.4531 56.8875L50.9906 52.5H51.5625C51.8111 52.5 52.0496 52.4012 52.2254 52.2254C52.4012 52.0496 52.5 51.8111 52.5 51.5625V47.8125C52.4982 47.5764 52.4075 47.3497 52.2458 47.1777C52.0842 47.0056 51.8636 46.9009 51.6281 46.8844L57.9188 39.0187C58.0526 38.8547 58.1255 38.6493 58.125 38.4375V11.25C58.125 10.2554 57.7299 9.30161 57.0267 8.59835C56.3234 7.89509 55.3696 7.5 54.375 7.5ZM25.3125 3.75H34.6875V21.6844L30.5156 18.9094C30.3637 18.8056 30.184 18.7501 30 18.7501C29.816 18.7501 29.6363 18.8056 29.4844 18.9094L25.3125 21.6844V3.75ZM22.5 56.25H9.74063L10.9875 52.5H22.5V56.25ZM24.375 50.625H9.375V48.75H24.375V50.625ZM22.8281 46.875H10.7625L3.75 38.1094V11.25C3.75 10.7527 3.94755 10.2758 4.29918 9.92418C4.65081 9.57254 5.12772 9.375 5.625 9.375C6.12228 9.375 6.5992 9.57254 6.95083 9.92418C7.30246 10.2758 7.5 10.7527 7.5 11.25V30C7.49949 30.2118 7.57238 30.4172 7.70625 30.5812L15.2063 39.9562C15.3258 40.1097 15.4909 40.2214 15.6778 40.2752C15.8648 40.3291 16.064 40.3225 16.2469 40.2562C16.4298 40.1923 16.5884 40.0732 16.7009 39.9154C16.8134 39.7576 16.8742 39.5688 16.875 39.375V27.1875C16.875 26.9389 16.9738 26.7004 17.1496 26.5246C17.3254 26.3488 17.5639 26.25 17.8125 26.25H19.125L26.1469 39.4125L22.8281 46.875ZM26.9625 42.1875L28.0406 39.7594C28.1011 39.6293 28.13 39.4868 28.1251 39.3435C28.1202 39.2002 28.0816 39.06 28.0125 38.9344L20.5125 24.8719C20.4341 24.7211 20.3156 24.5949 20.17 24.5072C20.0244 24.4196 19.8574 24.3738 19.6875 24.375H17.8125C17.0673 24.3772 16.3532 24.6743 15.8262 25.2012C15.2993 25.7282 15.0022 26.4423 15 27.1875V36.7031L9.375 29.6719V11.25C9.36915 10.3449 9.03618 9.47254 8.4375 8.79375V4.6875C8.4375 4.43886 8.53627 4.2004 8.71209 4.02459C8.88791 3.84877 9.12636 3.75 9.375 3.75H23.4375V23.4375C23.4363 23.6074 23.4821 23.7744 23.5697 23.92C23.6574 24.0656 23.7836 24.1841 23.9344 24.2625C24.0821 24.3451 24.2501 24.3845 24.4192 24.3763C24.5883 24.368 24.7517 24.3123 24.8906 24.2156L30 20.8125L35.1094 24.2156C35.2504 24.3085 35.4138 24.3615 35.5825 24.3692C35.7511 24.3769 35.9187 24.3388 36.0676 24.2591C36.2164 24.1794 36.341 24.061 36.4281 23.9164C36.5152 23.7718 36.5616 23.6063 36.5625 23.4375V3.75H50.625C50.8736 3.75 51.1121 3.84877 51.2879 4.02459C51.4637 4.2004 51.5625 4.43886 51.5625 4.6875V8.79375C50.9638 9.47254 50.6309 10.3449 50.625 11.25V29.6719L45 36.7031V27.1875C44.9978 26.4423 44.7007 25.7282 44.1738 25.2012C43.6468 24.6743 42.9327 24.3772 42.1875 24.375H40.3125C40.1426 24.3738 39.9756 24.4196 39.83 24.5072C39.6844 24.5949 39.5659 24.7211 39.4875 24.8719L31.9875 38.9344C31.9184 39.06 31.8798 39.2002 31.8749 39.3435C31.87 39.4868 31.899 39.6293 31.9594 39.7594L33.0375 42.1875H26.9625ZM37.5 56.25V52.5H49.0125L50.2594 56.25H37.5ZM50.625 50.625H35.625V48.75H50.625V50.625ZM56.25 38.1094L49.2375 46.875H37.1719L33.8531 39.4125L40.875 26.25H42.1875C42.4361 26.25 42.6746 26.3488 42.8504 26.5246C43.0262 26.7004 43.125 26.9389 43.125 27.1875V39.375C43.1258 39.5688 43.1866 39.7576 43.2991 39.9154C43.4116 40.0732 43.5702 40.1923 43.7531 40.2562C43.936 40.3225 44.1352 40.3291 44.3222 40.2752C44.5091 40.2214 44.6742 40.1097 44.7938 39.9562L52.2938 30.5812C52.4276 30.4172 52.5005 30.2118 52.5 30V11.25C52.5 10.7527 52.6975 10.2758 53.0492 9.92418C53.4008 9.57254 53.8777 9.375 54.375 9.375C54.8723 9.375 55.3492 9.57254 55.7008 9.92418C56.0525 10.2758 56.25 10.7527 56.25 11.25V38.1094Z" fill="#1B2029"/>
</svg>
