<svg width="60" height="60" viewBox="0 0 60 60" fill="none" xmlns="http://www.w3.org/2000/svg">
<path d="M57.8905 50.9437C57.8034 50.8428 57.6954 50.7621 57.574 50.707C57.4526 50.652 57.3206 50.624 57.1873 50.625H56.2498V21.5625C56.2476 20.8173 55.9506 20.1032 55.4236 19.5762C54.8967 19.0493 54.1826 18.7522 53.4374 18.75H52.4999V4.6875C52.4976 3.94226 52.2006 3.22819 51.6736 2.70122C51.1467 2.17426 50.4326 1.87723 49.6874 1.875H10.3124C9.56711 1.87723 8.85304 2.17426 8.32607 2.70122C7.79911 3.22819 7.50208 3.94226 7.49985 4.6875V18.75H6.56235C5.81712 18.7522 5.10304 19.0493 4.57607 19.5762C4.04911 20.1032 3.75208 20.8173 3.74985 21.5625V50.625H2.81235C2.67905 50.624 2.54713 50.652 2.42572 50.707C2.30432 50.7621 2.19632 50.8428 2.10923 50.9437C2.02051 51.0456 1.95455 51.1651 1.91574 51.2945C1.87694 51.4238 1.8662 51.5599 1.88423 51.6937L2.46548 55.8937C2.47485 55.9312 2.47485 55.9594 2.48423 55.9969C2.63676 56.6049 2.98805 57.1445 3.48232 57.5301C3.97658 57.9156 4.58549 58.125 5.21235 58.125H54.7873C55.4142 58.125 56.0231 57.9156 56.5174 57.5301C57.0117 57.1445 57.3629 56.6049 57.5155 55.9969C57.5248 55.9594 57.5248 55.9312 57.5342 55.8937L58.1155 51.6937C58.1335 51.5599 58.1228 51.4238 58.084 51.2945C58.0452 51.1651 57.9792 51.0456 57.8905 50.9437ZM9.37485 4.6875C9.37485 4.43886 9.47362 4.2004 9.64944 4.02459C9.82525 3.84877 10.0637 3.75 10.3124 3.75H49.6874C49.936 3.75 50.1744 3.84877 50.3503 4.02459C50.5261 4.2004 50.6249 4.43886 50.6249 4.6875V9.375H9.37485V4.6875ZM9.37485 11.25H50.6249V45.9375C50.6249 46.1861 50.5261 46.4246 50.3503 46.6004C50.1744 46.7762 49.936 46.875 49.6874 46.875H10.3124C10.0637 46.875 9.82525 46.7762 9.64944 46.6004C9.47362 46.4246 9.37485 46.1861 9.37485 45.9375V11.25ZM5.62485 21.5625C5.62485 21.3139 5.72362 21.0754 5.89944 20.8996C6.07525 20.7238 6.31371 20.625 6.56235 20.625H7.49985V45.9375C7.50208 46.6827 7.79911 47.3968 8.32607 47.9238C8.85304 48.4507 9.56711 48.7478 10.3124 48.75H49.6874C50.4326 48.7478 51.1467 48.4507 51.6736 47.9238C52.2006 47.3968 52.4976 46.6827 52.4999 45.9375V20.625H53.4374C53.686 20.625 53.9244 20.7238 54.1003 20.8996C54.2761 21.0754 54.3749 21.3139 54.3749 21.5625V50.625H33.7499C33.5012 50.625 33.2628 50.7238 33.0869 50.8996C32.9111 51.0754 32.8124 51.3139 32.8124 51.5625V52.5H27.1874V51.5625C27.1874 51.3139 27.0886 51.0754 26.9128 50.8996C26.7369 50.7238 26.4985 50.625 26.2499 50.625H5.62485V21.5625ZM55.6874 55.5844C55.6278 55.7767 55.5084 55.945 55.3465 56.0648C55.1846 56.1845 54.9887 56.2494 54.7873 56.25H5.21235C5.01099 56.2494 4.81508 56.1845 4.65319 56.0648C4.4913 55.945 4.37188 55.7767 4.31235 55.5844L3.89048 52.5H25.3124V53.4375C25.3124 53.6861 25.4111 53.9246 25.5869 54.1004C25.7628 54.2762 26.0012 54.375 26.2499 54.375H33.7499C33.9985 54.375 34.2369 54.2762 34.4128 54.1004C34.5886 53.9246 34.6874 53.6861 34.6874 53.4375V52.5H56.1092L55.6874 55.5844Z" fill="#1B2029"/>
<path d="M18.75 5.625H20.625V7.5H18.75V5.625Z" fill="#1B2029"/>
<path d="M15 5.625H16.875V7.5H15V5.625Z" fill="#1B2029"/>
<path d="M11.25 5.625H13.125V7.5H11.25V5.625Z" fill="#1B2029"/>
<path d="M12.1875 20.625H47.8125C48.0611 20.625 48.2996 20.5262 48.4754 20.3504C48.6512 20.1746 48.75 19.9361 48.75 19.6875V14.0625C48.75 13.8139 48.6512 13.5754 48.4754 13.3996C48.2996 13.2238 48.0611 13.125 47.8125 13.125H12.1875C11.9389 13.125 11.7004 13.2238 11.5246 13.3996C11.3488 13.5754 11.25 13.8139 11.25 14.0625V19.6875C11.25 19.9361 11.3488 20.1746 11.5246 20.3504C11.7004 20.5262 11.9389 20.625 12.1875 20.625ZM13.125 15H46.875V18.75H13.125V15Z" fill="#1B2029"/>
<path d="M12.1875 30H21.5625C21.8111 30 22.0496 29.9012 22.2254 29.7254C22.4012 29.5496 22.5 29.3111 22.5 29.0625V23.4375C22.5 23.1889 22.4012 22.9504 22.2254 22.7746C22.0496 22.5988 21.8111 22.5 21.5625 22.5H12.1875C11.9389 22.5 11.7004 22.5988 11.5246 22.7746C11.3488 22.9504 11.25 23.1889 11.25 23.4375V29.0625C11.25 29.3111 11.3488 29.5496 11.5246 29.7254C11.7004 29.9012 11.9389 30 12.1875 30ZM13.125 24.375H20.625V28.125H13.125V24.375Z" fill="#1B2029"/>
<path d="M12.1875 45H34.6875C34.9361 45 35.1746 44.9012 35.3504 44.7254C35.5262 44.5496 35.625 44.3111 35.625 44.0625V32.8125C35.625 32.5639 35.5262 32.3254 35.3504 32.1496C35.1746 31.9738 34.9361 31.875 34.6875 31.875H12.1875C11.9389 31.875 11.7004 31.9738 11.5246 32.1496C11.3488 32.3254 11.25 32.5639 11.25 32.8125V44.0625C11.25 44.3111 11.3488 44.5496 11.5246 44.7254C11.7004 44.9012 11.9389 45 12.1875 45ZM13.125 33.75H33.75V43.125H13.125V33.75Z" fill="#1B2029"/>
<path d="M24.375 23.4375H28.125V25.3125H24.375V23.4375Z" fill="#1B2029"/>
<path d="M30 23.4375H48.75V25.3125H30V23.4375Z" fill="#1B2029"/>
<path d="M24.375 27.1875H39.375V29.0625H24.375V27.1875Z" fill="#1B2029"/>
<path d="M41.25 27.1875H48.75V29.0625H41.25V27.1875Z" fill="#1B2029"/>
<path d="M37.5 33.75H44.0625V35.625H37.5V33.75Z" fill="#1B2029"/>
<path d="M45.9375 33.75H48.75V35.625H45.9375V33.75Z" fill="#1B2029"/>
<path d="M37.5 37.5H48.75V39.375H37.5V37.5Z" fill="#1B2029"/>
<path d="M37.5 41.25H41.25V43.125H37.5V41.25Z" fill="#1B2029"/>
<path d="M43.125 41.25H48.75V43.125H43.125V41.25Z" fill="#1B2029"/>
</svg>
