<svg width="60" height="60" viewBox="0 0 60 60" fill="none" xmlns="http://www.w3.org/2000/svg">
<path d="M53.2388 6.75578C44.282 -2.22579 29.7401 -2.24606 20.7586 6.71072C12.0922 15.353 11.7256 29.2729 19.9247 38.3595L18.1707 40.1135C16.7537 38.6962 14.456 38.6959 13.0388 40.113C13.0386 40.1132 13.0385 40.1133 13.0383 40.1135L1.06309 52.0887C-0.354135 53.5058 -0.354437 55.8034 1.06263 57.2207C1.06278 57.2208 1.06293 57.221 1.06309 57.2211L2.77349 58.9315C4.19056 60.3481 6.48762 60.3481 7.90469 58.9315L19.8799 46.9563C21.2971 45.5392 21.2974 43.2415 19.8804 41.8243C19.8802 41.8242 19.8801 41.824 19.8799 41.8239L21.6339 40.0699C31.0447 48.5746 45.568 47.8399 54.0727 38.4292C62.2875 29.3391 61.9205 15.4011 53.2388 6.75578ZM18.1707 45.2447L6.1955 57.2199C5.72314 57.6921 4.95746 57.6921 4.4851 57.2199L2.7747 55.5083C2.30325 55.0361 2.30325 54.2713 2.7747 53.7991L14.7499 41.8239C15.2283 41.3665 15.9819 41.3665 16.4603 41.8239L18.1707 43.5355C18.6422 44.0077 18.6422 44.7725 18.1707 45.2447ZM51.5296 37.5479C43.499 45.5782 30.4788 45.5781 22.4484 37.5474C14.418 29.5167 14.4182 16.4965 22.4489 8.46618C30.4794 0.435974 43.4991 0.435974 51.5296 8.46618C59.5471 16.5023 59.5471 29.5117 51.5296 37.5479Z" fill="#1B2029"/>
<path d="M49.8181 10.1763L48.1077 11.8867C54.2382 18.0321 54.2382 27.9801 48.1077 34.1255L49.8181 35.8359C56.8937 28.746 56.8937 17.2662 49.8181 10.1763Z" fill="#1B2029"/>
</svg>
