<svg width="60" height="60" viewBox="0 0 60 60" fill="none" xmlns="http://www.w3.org/2000/svg">
<path d="M58.1906 21.694L52.8375 16.3409C53.7841 15.0784 54.2436 13.5168 54.1316 11.9429C54.0196 10.3689 53.3437 8.8881 52.2279 7.77232C51.1122 6.65654 49.6314 5.98062 48.0574 5.86865C46.4834 5.75668 44.9219 6.21616 43.6594 7.16275L38.2969 1.80025C38.1917 1.69751 38.0642 1.62038 37.9244 1.57486C37.7846 1.52933 37.6362 1.51664 37.4906 1.53775C37.3445 1.56482 37.2063 1.62436 37.0862 1.71198C36.9661 1.7996 36.8672 1.91307 36.7969 2.044L24.3656 26.9159C24.2918 25.2258 23.5698 23.6292 22.3494 22.4577C21.129 21.2862 19.5042 20.6299 17.8125 20.6253H12.1875C10.4476 20.6272 8.77958 21.3193 7.5493 22.5496C6.31903 23.7798 5.62699 25.4479 5.625 27.1878V28.1253C5.62685 28.3738 5.72419 28.6121 5.89687 28.7909L7.14375 30.0378C6.71678 30.1204 6.33182 30.3489 6.05476 30.6841C5.7777 31.0193 5.62578 31.4404 5.625 31.8753V32.8128C5.62648 33.3096 5.8245 33.7856 6.17581 34.1369C6.52712 34.4882 7.00318 34.6863 7.5 34.6878H8.5125C8.64096 35.5762 8.95015 36.4289 9.42098 37.1932C9.89181 37.9575 10.5143 38.6171 11.25 39.1315V41.719L8.12813 44.0628H2.8125C2.56386 44.0628 2.3254 44.1615 2.14959 44.3373C1.97377 44.5132 1.875 44.7516 1.875 45.0003V57.1878C1.875 57.4364 1.97377 57.6749 2.14959 57.8507C2.3254 58.0265 2.56386 58.1253 2.8125 58.1253H27.1875C27.4361 58.1253 27.6746 58.0265 27.8504 57.8507C28.0262 57.6749 28.125 57.4364 28.125 57.1878V45.0003C28.125 44.7516 28.0262 44.5132 27.8504 44.3373C27.6746 44.1615 27.4361 44.0628 27.1875 44.0628H21.8719L18.75 41.719V39.1315C19.498 38.6027 20.1297 37.9263 20.6062 37.144L24.3844 40.9221C24.9128 41.4463 25.6275 41.7396 26.3719 41.7378C26.7391 41.7393 27.1031 41.668 27.4426 41.528C27.7821 41.388 28.0905 41.1821 28.35 40.9221L29.6812 39.6003C29.7698 39.5134 29.8403 39.4099 29.8886 39.2956C29.9369 39.1814 29.962 39.0587 29.9625 38.9346C29.9589 38.6864 29.8618 38.4488 29.6906 38.269L29.025 37.6034L30.3469 36.2815L40.2938 46.2284C40.4725 46.4011 40.7108 46.4984 40.9594 46.5003C41.2051 46.4983 41.4405 46.4008 41.6156 46.2284L44.2688 43.5753C44.4192 43.4251 44.5141 43.2282 44.538 43.017C44.5618 42.8058 44.5132 42.5927 44.4 42.4128L38.475 32.9253L57.9469 23.194C58.0778 23.1236 58.1913 23.0248 58.2789 22.9047C58.3665 22.7846 58.4261 22.6464 58.4531 22.5003C58.475 22.3547 58.4626 22.2061 58.4171 22.0661C58.3715 21.9262 58.294 21.7988 58.1906 21.694ZM50.8969 9.10338C51.6601 9.86718 52.1366 10.8708 52.2459 11.9451C52.3552 13.0193 52.0906 14.0984 51.4969 15.0003L45 8.50338C45.9019 7.90961 46.9809 7.64507 48.0552 7.75437C49.1294 7.86367 50.1331 8.34013 50.8969 9.10338ZM23.5312 29.3628C23.5724 29.4691 23.6364 29.5651 23.7188 29.644L23.7281 29.6534L23.2313 30.1503C23.1125 30.0945 22.9861 30.0566 22.8562 30.0378L23.5312 29.3628ZM8.4375 32.8128H7.5V31.8753H8.4375V32.8128ZM20.5969 52.7253L22.2938 45.9378H26.25V56.2503H3.75V45.9378H7.70625L9.40312 52.7253C9.45337 52.9285 9.57022 53.1091 9.73503 53.2382C9.89984 53.3673 10.1031 53.4376 10.3125 53.4378H19.6875C19.8969 53.4376 20.1002 53.3673 20.265 53.2382C20.4298 53.1091 20.5466 52.9285 20.5969 52.7253ZM18.9562 51.5628H11.0437L9.88125 46.9034L14.5312 49.5659C14.675 49.6443 14.8362 49.6854 15 49.6854C15.1638 49.6854 15.325 49.6443 15.4688 49.5659L20.1187 46.9034L18.9562 51.5628ZM19.8563 44.8971L15 47.6721L10.1437 44.8971L12.75 42.9378C12.8657 42.8497 12.9597 42.7364 13.0247 42.6063C13.0897 42.4763 13.124 42.3331 13.125 42.1878V40.0409C14.3487 40.4034 15.6513 40.4034 16.875 40.0409V42.1878C16.876 42.3331 16.9103 42.4763 16.9753 42.6063C17.0403 42.7364 17.1343 42.8497 17.25 42.9378L19.8563 44.8971ZM19.6875 33.7503C19.6875 34.9935 19.1936 36.1857 18.3146 37.0648C17.4355 37.9439 16.2432 38.4378 15 38.4378C13.7568 38.4378 12.5645 37.9439 11.6854 37.0648C10.8064 36.1857 10.3125 34.9935 10.3125 33.7503V28.7065L13.2375 27.244L19.6875 28.8565V33.7503ZM20.85 27.2159L13.35 25.3409C13.1325 25.2859 12.9023 25.3126 12.7031 25.4159L8.95312 27.2909C8.79692 27.3668 8.66551 27.4855 8.57421 27.6332C8.48292 27.781 8.43551 27.9516 8.4375 28.1253V28.6784L7.5 27.7409V27.1878C7.5 25.9445 7.99386 24.7523 8.87294 23.8732C9.75201 22.9941 10.9443 22.5003 12.1875 22.5003H17.8125C18.4281 22.5003 19.0376 22.6215 19.6063 22.8571C20.175 23.0926 20.6918 23.4379 21.1271 23.8732C21.5623 24.3085 21.9076 24.8252 22.1432 25.3939C22.3788 25.9626 22.5 26.5722 22.5 27.1878V27.7409L21.5625 28.6784V28.1253C21.5623 27.9159 21.4921 27.7126 21.363 27.5478C21.2338 27.383 21.0533 27.2661 20.85 27.2159ZM22.5 31.8753V32.8128H21.5625V31.8753H22.5ZM27.0281 39.5909C26.8529 39.7627 26.6173 39.8589 26.3719 39.8589C26.1265 39.8589 25.8909 39.7627 25.7156 39.5909L21.3844 35.2596C21.4219 35.0721 21.4594 34.8846 21.4875 34.6878H22.5C22.7695 34.6877 23.0355 34.6268 23.2781 34.5096L27.0281 38.269L27.6938 38.9346L27.0281 39.5909ZM27.6938 36.2815L24.3656 32.944C24.3656 32.8971 24.375 32.8596 24.375 32.8128V31.8753C24.3734 31.8093 24.3671 31.7435 24.3562 31.6784L25.05 30.9846L28.7719 34.7065L29.025 34.9503L27.6938 36.2815ZM42.4219 42.769L40.9594 44.2315L32.5875 35.869L36.7875 33.769L42.4219 42.769ZM31.1906 34.4721L31.0125 34.294V34.2846L30 33.2815L25.5187 28.8003L37.8937 4.05025L42.9469 9.10338L50.8969 17.0534L55.9406 22.0971L31.1906 34.4721Z" fill="#1B2029"/>
<path d="M37.6416 9.10053L49.7353 21.1943L31.2666 30.1352L32.0832 31.8227L51.7369 22.3052C51.8713 22.24 51.9882 22.1435 52.0777 22.024C52.1673 21.9044 52.227 21.7652 52.2519 21.6179C52.2767 21.4705 52.266 21.3194 52.2206 21.1771C52.1753 21.0348 52.0965 20.9053 51.991 20.7996L38.9672 7.7749L37.6416 9.10053Z" fill="#1B2029"/>
<path d="M52.7686 5.90527L56.5187 2.15518L57.8445 3.481L54.0944 7.2311L52.7686 5.90527Z" fill="#1B2029"/>
<path d="M54.375 7.5H58.125V9.375H54.375V7.5Z" fill="#1B2029"/>
<path d="M50.625 1.875H52.5V5.625H50.625V1.875Z" fill="#1B2029"/>
<path d="M12.1875 30H14.0625V31.875H12.1875V30Z" fill="#1B2029"/>
<path d="M15.9375 30H17.8125V31.875H15.9375V30Z" fill="#1B2029"/>
<path d="M19.6875 1.875H4.6875C3.94226 1.87723 3.22819 2.17426 2.70122 2.70122C2.17426 3.22819 1.87723 3.94226 1.875 4.6875V12.1875C1.87723 12.9327 2.17426 13.6468 2.70122 14.1738C3.22819 14.7007 3.94226 14.9978 4.6875 15H7.11563L10.5844 18.4781C10.7617 18.653 11.0009 18.7507 11.25 18.75C11.373 18.7532 11.495 18.7275 11.6062 18.675C11.7784 18.606 11.9259 18.4869 12.0295 18.3331C12.1332 18.1793 12.1882 17.998 12.1875 17.8125V15H19.6875C20.4327 14.9978 21.1468 14.7007 21.6738 14.1738C22.2007 13.6468 22.4978 12.9327 22.5 12.1875V4.6875C22.4978 3.94226 22.2007 3.22819 21.6738 2.70122C21.1468 2.17426 20.4327 1.87723 19.6875 1.875ZM20.625 12.1875C20.625 12.4361 20.5262 12.6746 20.3504 12.8504C20.1746 13.0262 19.9361 13.125 19.6875 13.125H11.25C11.0014 13.125 10.7629 13.2238 10.5871 13.3996C10.4113 13.5754 10.3125 13.8139 10.3125 14.0625V15.5531L8.16563 13.3969C7.98686 13.2242 7.74854 13.1269 7.5 13.125H4.6875C4.43886 13.125 4.2004 13.0262 4.02459 12.8504C3.84877 12.6746 3.75 12.4361 3.75 12.1875V4.6875C3.75 4.43886 3.84877 4.2004 4.02459 4.02459C4.2004 3.84877 4.43886 3.75 4.6875 3.75H19.6875C19.9361 3.75 20.1746 3.84877 20.3504 4.02459C20.5262 4.2004 20.625 4.43886 20.625 4.6875V12.1875Z" fill="#1B2029"/>
<path d="M5.625 7.5H7.5V9.375H5.625V7.5Z" fill="#1B2029"/>
<path d="M9.375 7.5H11.25V9.375H9.375V7.5Z" fill="#1B2029"/>
<path d="M13.125 7.5H15V9.375H13.125V7.5Z" fill="#1B2029"/>
<path d="M16.875 7.5H18.75V9.375H16.875V7.5Z" fill="#1B2029"/>
</svg>
