<svg width="60" height="60" viewBox="0 0 60 60" fill="none" xmlns="http://www.w3.org/2000/svg">
<path d="M49.6875 23.4375H40.3125C39.1338 23.4389 37.9993 23.8863 37.1367 24.6897C36.2742 25.4931 35.7475 26.5931 35.6625 27.7688L30 35.55C29.9933 33.5194 29.2552 31.5591 27.9208 30.0285C26.5864 28.4978 24.7452 27.4992 22.7344 27.2156L20.1938 26.3719L19.6875 25.8656V23.1938C20.4233 22.6794 21.0457 22.0197 21.5166 21.2554C21.9874 20.4911 22.2966 19.6384 22.425 18.75H23.4375C23.9344 18.7485 24.4104 18.5505 24.7617 18.1992C25.113 17.8479 25.3111 17.3718 25.3125 16.875V15.9375C25.3111 15.4407 25.113 14.9646 24.7617 14.6133C24.4104 14.262 23.9344 14.064 23.4375 14.0625H22.5V13.8C23.3661 13.1988 24.0741 12.3972 24.5638 11.4636C25.0535 10.5299 25.3103 9.49178 25.3125 8.4375V4.6875C25.3125 4.43886 25.2138 4.2004 25.038 4.02459C24.8621 3.84877 24.6237 3.75 24.375 3.75H13.125C11.3852 3.75199 9.71713 4.44403 8.48685 5.6743C7.25658 6.90458 6.56453 8.57263 6.56255 10.3125V12.1875C6.56533 12.5896 6.65371 12.9866 6.82183 13.3519C6.98994 13.7172 7.23392 14.0426 7.53755 14.3063C7.24339 14.4654 6.99757 14.7009 6.82599 14.988C6.6544 15.275 6.5634 15.6031 6.56255 15.9375V16.875C6.56403 17.3718 6.76205 17.8479 7.11336 18.1992C7.46467 18.5505 7.94072 18.7485 8.43755 18.75H9.45005C9.57851 19.6384 9.8877 20.4911 10.3585 21.2554C10.8294 22.0197 11.4518 22.6794 12.1875 23.1938V25.8656L11.6813 26.3719L9.14067 27.2156C7.11647 27.4995 5.26412 28.5085 3.9278 30.0552C2.59148 31.6018 1.86206 33.581 1.87505 35.625V57.1875C1.87505 57.4361 1.97382 57.6746 2.14964 57.8504C2.32545 58.0262 2.56391 58.125 2.81255 58.125H27.1875C27.9328 58.1228 28.6469 57.8257 29.1738 57.2988C29.7008 56.7718 29.9978 56.0577 30 55.3125V49.0219L42.7032 29.0625H45.9375C47.1807 29.0625 48.373 28.5686 49.2521 27.6896C50.1312 26.8105 50.625 25.6182 50.625 24.375C50.625 24.1264 50.5263 23.8879 50.3505 23.7121C50.1746 23.5363 49.9362 23.4375 49.6875 23.4375ZM23.4375 15.9375V16.875H22.5V15.9375H23.4375ZM9.37505 16.875H8.43755V15.9375H9.37505V16.875ZM9.89067 11.3531C9.73524 11.43 9.60451 11.549 9.51335 11.6965C9.4222 11.844 9.37428 12.0141 9.37505 12.1875V13.125C9.12641 13.125 8.88795 13.0262 8.71214 12.8504C8.53632 12.6746 8.43755 12.4361 8.43755 12.1875V10.3125C8.43755 9.0693 8.93141 7.87701 9.81049 6.99794C10.6896 6.11886 11.8818 5.625 13.125 5.625H23.4375V8.4375C23.4353 9.58752 23.0079 10.6961 22.2375 11.55C22.1143 11.4211 21.959 11.3272 21.7875 11.2781L14.2875 9.40312C14.07 9.34813 13.8399 9.37481 13.6407 9.47812L9.89067 11.3531ZM11.25 17.8125V12.7688L14.175 11.3063L20.625 12.9187V17.8125C20.625 19.0557 20.1312 20.248 19.2521 21.1271C18.373 22.0061 17.1807 22.5 15.9375 22.5C14.6943 22.5 13.5021 22.0061 12.623 21.1271C11.7439 20.248 11.25 19.0557 11.25 17.8125ZM18.0844 26.9156L18.3657 27.1875L15.9375 29.6156L13.5094 27.1875L13.7907 26.9156C13.9634 26.7369 14.0607 26.4985 14.0625 26.25V24.1031C15.2863 24.4656 16.5888 24.4656 17.8125 24.1031V26.25C17.8144 26.4985 17.9117 26.7369 18.0844 26.9156ZM11.9344 28.2562L15.2719 31.6031C15.4489 31.7788 15.6882 31.8773 15.9375 31.8773C16.1869 31.8773 16.4262 31.7788 16.6032 31.6031L19.9407 28.2562L21 28.6125L17.3344 33.75H14.5407L10.875 28.6125L11.9344 28.2562ZM17.6438 39.375L18.6844 45.6188L15.9375 48.3656L13.1907 45.6188L14.2313 39.375H17.6438ZM14.5407 37.5L14.8594 35.625H17.0157L17.3344 37.5H14.5407ZM7.50005 56.25H3.75005V46.875H7.50005V56.25ZM28.275 48.2437C28.175 48.3934 28.1227 48.57 28.125 48.75V55.3125C28.125 55.5611 28.0263 55.7996 27.8505 55.9754C27.6746 56.1512 27.4362 56.25 27.1875 56.25H9.37505V45.9375C9.37505 45.6889 9.27628 45.4504 9.10046 45.2746C8.92465 45.0988 8.68619 45 8.43755 45H3.75005V35.625C3.73934 34.1113 4.2511 32.6403 5.19899 31.4602C6.14687 30.28 7.47285 29.463 8.95317 29.1469L13.0782 34.9125L11.2594 45.7875C11.2361 45.9345 11.2476 46.085 11.2932 46.2267C11.3389 46.3684 11.4172 46.4973 11.5219 46.6031L15.2719 50.3531C15.4496 50.5274 15.6886 50.625 15.9375 50.625C16.1865 50.625 16.4255 50.5274 16.6032 50.3531L20.3532 46.6031C20.4579 46.4973 20.5362 46.3684 20.5818 46.2267C20.6275 46.085 20.639 45.9345 20.6157 45.7875L18.7969 34.9125L22.9219 29.1469C24.4022 29.463 25.7282 30.28 26.6761 31.4602C27.624 32.6403 28.1358 34.1113 28.125 35.625V38.4375C28.1243 38.6359 28.1866 38.8294 28.3028 38.9902C28.4191 39.151 28.5834 39.2707 28.772 39.3322C28.9606 39.3937 29.1639 39.3937 29.3526 39.3324C29.5412 39.271 29.7056 39.1513 29.8219 38.9906L37.0407 29.0625H40.4813L28.275 48.2437ZM45.9375 27.1875H37.6594C37.855 26.64 38.2148 26.1661 38.6896 25.8306C39.1644 25.495 39.7311 25.3141 40.3125 25.3125H48.5907C48.3951 25.86 48.0353 26.3339 47.5605 26.6694C47.0857 27.005 46.519 27.1859 45.9375 27.1875Z" fill="#1B2029"/>
<path d="M49.6875 4.6875H38.4375C37.6923 4.68973 36.9782 4.98676 36.4512 5.51372C35.9243 6.04069 35.6272 6.75476 35.625 7.5V18.75C35.6272 19.4952 35.9243 20.2093 36.4512 20.7363C36.9782 21.2632 37.6923 21.5603 38.4375 21.5625H49.6875C50.4327 21.5603 51.1468 21.2632 51.6738 20.7363C52.2007 20.2093 52.4978 19.4952 52.5 18.75V7.5C52.4978 6.75476 52.2007 6.04069 51.6738 5.51372C51.1468 4.98676 50.4327 4.68973 49.6875 4.6875ZM43.125 6.5625H45V10.8656L44.7281 10.5844C44.5511 10.4087 44.3119 10.3102 44.0625 10.3102C43.8131 10.3102 43.5739 10.4087 43.3969 10.5844L43.125 10.8656V6.5625ZM50.625 18.75C50.625 18.9986 50.5262 19.2371 50.3504 19.4129C50.1746 19.5887 49.9361 19.6875 49.6875 19.6875H38.4375C38.1889 19.6875 37.9504 19.5887 37.7746 19.4129C37.5988 19.2371 37.5 18.9986 37.5 18.75V7.5C37.5 7.25136 37.5988 7.0129 37.7746 6.83709C37.9504 6.66127 38.1889 6.5625 38.4375 6.5625H41.25V13.125C41.2493 13.3105 41.3043 13.4918 41.408 13.6456C41.5116 13.7994 41.6591 13.9185 41.8312 13.9875C42.002 14.0593 42.1901 14.0789 42.372 14.0439C42.5539 14.0088 42.7213 13.9207 42.8531 13.7906L44.0625 12.5719L45.2719 13.7906C45.4492 13.9655 45.6884 14.0632 45.9375 14.0625C46.0605 14.0657 46.1825 14.04 46.2938 13.9875C46.4659 13.9185 46.6134 13.7994 46.717 13.6456C46.8207 13.4918 46.8757 13.3105 46.875 13.125V6.5625H49.6875C49.9361 6.5625 50.1746 6.66127 50.3504 6.83709C50.5262 7.0129 50.625 7.25136 50.625 7.5V18.75Z" fill="#1B2029"/>
<path d="M46.875 35.625C44.65 35.625 42.4749 36.2848 40.6248 37.521C38.7748 38.7571 37.3328 40.5141 36.4814 42.5698C35.6299 44.6255 35.4071 46.8875 35.8412 49.0698C36.2753 51.252 37.3467 53.2566 38.9201 54.8299C40.4934 56.4033 42.498 57.4747 44.6802 57.9088C46.8625 58.3429 49.1245 58.1201 51.1802 57.2686C53.2359 56.4171 54.9929 54.9752 56.229 53.1252C57.4652 51.2751 58.125 49.1 58.125 46.875C58.1218 43.8923 56.9355 41.0327 54.8264 38.9236C52.7173 36.8145 49.8577 35.6282 46.875 35.625ZM46.875 56.25C45.0208 56.25 43.2082 55.7002 41.6665 54.67C40.1248 53.6399 38.9232 52.1757 38.2136 50.4627C37.5041 48.7496 37.3184 46.8646 37.6801 45.046C38.0419 43.2275 38.9348 41.557 40.2459 40.2459C41.557 38.9348 43.2275 38.0419 45.046 37.6801C46.8646 37.3184 48.7496 37.5041 50.4627 38.2136C52.1757 38.9232 53.6399 40.1248 54.67 41.6665C55.7002 43.2082 56.25 45.0208 56.25 46.875C56.2473 49.3606 55.2587 51.7435 53.5011 53.5011C51.7435 55.2587 49.3606 56.2473 46.875 56.25Z" fill="#1B2029"/>
<path d="M15 14.0625H13.125V15.9375H15V14.0625Z" fill="#1B2029"/>
<path d="M18.75 14.0625H16.875V15.9375H18.75V14.0625Z" fill="#1B2029"/>
<path d="M47.8125 39.375H45.9375V46.875C45.9375 47.1236 46.0363 47.3621 46.2121 47.5379C46.3879 47.7137 46.6264 47.8125 46.875 47.8125H52.5V45.9375H47.8125V39.375Z" fill="#1B2029"/>
</svg>
