<svg width="60" height="60" viewBox="0 0 60 60" fill="none" xmlns="http://www.w3.org/2000/svg">
<path d="M51 46H49.035C52.1719 42.9505 53.6992 38.6077 53.162 34.266L50.413 12.266C50.2154 10.6616 49.7371 9.10462 49 7.666V7C48.9956 3.13587 45.8641 0.004375 42 0H18C14.1359 0.004375 11.0044 3.13587 11 7V7.666C10.263 9.10462 9.785 10.6616 9.588 12.266L6.838 34.266C6.30075 38.6077 7.82813 42.9505 10.965 46H9C7.34312 46 6 47.3431 6 49V55C6 56.6569 7.34312 58 9 58H11.184C11.6062 59.1944 12.7333 59.9948 14 60H46C47.2668 59.9948 48.3938 59.1944 48.816 58H51C52.6569 58 54 56.6569 54 55V49C54 47.3431 52.6569 46 51 46ZM11 56H9C8.44775 56 8 55.5522 8 55V49C8 48.4478 8.44775 48 9 48H11V56ZM11 43C9.229 40.5476 8.451 37.5161 8.822 34.514L11 17.094V43ZM47 57C47 57.5522 46.5522 58 46 58H14C13.4478 58 13 57.5522 13 57V31H47V57ZM17 29V7C17 6.44775 17.4478 6 18 6H42C42.5522 6 43 6.44775 43 7V29H17ZM47 29H45V7C45 5.34312 43.6569 4 42 4H18C16.3431 4 15 5.34312 15 7V29H13V7C13.0033 4.24 15.24 2.00325 18 2H42C44.76 2.00325 46.9967 4.24 47 7V29ZM49 17.1L51.178 34.514C51.549 37.5161 50.771 40.5476 49 43V17.1ZM52 55C52 55.5522 51.5522 56 51 56H49V48H51C51.5522 48 52 48.4478 52 49V55Z" fill="#1B2029"/>
<path d="M41 40H19C18.4477 40 18 40.4477 18 41V55C18 55.5522 18.4477 56 19 56H41C41.5522 56 42 55.5522 42 55V41C42 40.4477 41.5522 40 41 40ZM40 54H20V42H40V54Z" fill="#1B2029"/>
<path d="M15 33V35H42V38H44V35H45V33H15Z" fill="#1B2029"/>
<path d="M19 8V10H38V13H40V10H41V8H19Z" fill="#1B2029"/>
</svg>
