<svg width="60" height="60" viewBox="0 0 60 60" fill="none" xmlns="http://www.w3.org/2000/svg">
<path d="M57.1875 1.875H40.3125C40.0639 1.875 39.8254 1.97377 39.6496 2.14959C39.4738 2.3254 39.375 2.56386 39.375 2.8125V14.0625C39.375 14.3111 39.4738 14.5496 39.6496 14.7254C39.8254 14.9012 40.0639 15 40.3125 15H42.1875V17.8125C42.1875 17.9822 42.2335 18.1488 42.3207 18.2944C42.408 18.44 42.5331 18.5592 42.6827 18.6393C42.8324 18.7193 43.001 18.7573 43.1705 18.749C43.34 18.7408 43.5041 18.6867 43.6453 18.5925L49.0312 15H57.1875C57.4361 15 57.6746 14.9012 57.8504 14.7254C58.0262 14.5496 58.125 14.3111 58.125 14.0625V2.8125C58.125 2.56386 58.0262 2.3254 57.8504 2.14959C57.6746 1.97377 57.4361 1.875 57.1875 1.875ZM56.25 13.125H48.75C48.5649 13.1253 48.3839 13.1801 48.2297 13.2825L44.0625 16.0603V14.0625C44.0625 13.8139 43.9637 13.5754 43.7879 13.3996C43.6121 13.2238 43.3736 13.125 43.125 13.125H41.25V3.75H56.25V13.125Z" fill="#1B2029"/>
<path d="M52.5 5.625H54.375V7.5H52.5V5.625Z" fill="#1B2029"/>
<path d="M46.875 5.625H50.625V7.5H46.875V5.625Z" fill="#1B2029"/>
<path d="M43.125 5.625H45V7.5H43.125V5.625Z" fill="#1B2029"/>
<path d="M43.125 9.375H48.75V11.25H43.125V9.375Z" fill="#1B2029"/>
<path d="M39.3272 31.875H39.375C40.1209 31.875 40.8363 31.5787 41.3637 31.0512C41.8912 30.5238 42.1875 29.8084 42.1875 29.0625V28.125C42.1874 27.5734 42.025 27.0339 41.7206 26.5739C41.4162 26.1138 40.9833 25.7534 40.4756 25.5375L41.9128 24.1003C42.0886 23.9245 42.1874 23.6861 42.1875 23.4375V21.5625C42.1848 19.3256 41.2949 17.181 39.7132 15.5993C38.1315 14.0176 35.9869 13.1277 33.75 13.125H26.25C24.0131 13.1277 21.8685 14.0176 20.2868 15.5993C18.7051 17.181 17.8152 19.3256 17.8125 21.5625V23.4375C17.8126 23.6861 17.9114 23.9245 18.0872 24.1003L19.5244 25.5375C19.0167 25.7534 18.5838 26.1138 18.2794 26.5739C17.975 27.0339 17.8126 27.5734 17.8125 28.125V29.0625C17.8125 29.8084 18.1088 30.5238 18.6363 31.0512C19.1637 31.5787 19.8791 31.875 20.625 31.875H20.6728C20.905 34.1877 21.9879 36.3317 23.7116 37.891C25.4352 39.4503 27.6766 40.3137 30.0009 40.3137C32.3252 40.3137 34.5667 39.4503 36.2903 37.891C38.014 36.3317 39.0969 34.1877 39.3291 31.875H39.3272ZM40.3125 29.0625C40.3125 29.3111 40.2137 29.5496 40.0379 29.7254C39.8621 29.9012 39.6236 30 39.375 30V27.1875C39.6236 27.1875 39.8621 27.2863 40.0379 27.4621C40.2137 27.6379 40.3125 27.8764 40.3125 28.125V29.0625ZM19.6875 21.5625C19.6895 19.8226 20.3815 18.1546 21.6118 16.9243C22.8421 15.694 24.5101 15.002 26.25 15H33.75C35.4899 15.002 37.1579 15.694 38.3882 16.9243C39.6185 18.1546 40.3105 19.8226 40.3125 21.5625V23.0494L39.375 23.9869V23.4375C39.375 23.2318 39.3074 23.0318 39.1826 22.8683C39.0577 22.7048 38.8825 22.5869 38.6841 22.5328L28.3716 19.7203C28.1672 19.6654 27.9503 19.6806 27.7556 19.7634L21.1931 22.5759C21.0245 22.6482 20.8808 22.7684 20.7798 22.9215C20.6789 23.0747 20.625 23.2541 20.625 23.4375V23.9869L19.6875 23.0494V21.5625ZM19.6875 29.0625V28.125C19.6875 27.8764 19.7863 27.6379 19.9621 27.4621C20.1379 27.2863 20.3764 27.1875 20.625 27.1875V30C20.3764 30 20.1379 29.9012 19.9621 29.7254C19.7863 29.5496 19.6875 29.3111 19.6875 29.0625ZM30 38.4375C28.0116 38.4353 26.1052 37.6444 24.6992 36.2383C23.2931 34.8323 22.5022 32.9259 22.5 30.9375V24.0553L28.1934 21.6178L37.5 24.1538V30.9375C37.4978 32.9259 36.7069 34.8323 35.3008 36.2383C33.8948 37.6444 31.9884 38.4353 30 38.4375Z" fill="#1B2029"/>
<path d="M35.625 40.3122H24.375C23.1135 40.3118 21.8558 40.4511 20.625 40.7275V38.4372C20.625 38.1885 20.5262 37.9501 20.3504 37.7742C20.1746 37.5984 19.9361 37.4997 19.6875 37.4997H17.8125V34.6872C17.8125 34.5174 17.7665 34.3509 17.6793 34.2053C17.592 34.0597 17.4669 33.9405 17.3173 33.8604C17.1676 33.7803 16.999 33.7424 16.8295 33.7506C16.66 33.7589 16.4959 33.813 16.3547 33.9072L10.9688 37.4997H2.8125C2.56386 37.4997 2.3254 37.5984 2.14959 37.7742C1.97377 37.9501 1.875 38.1885 1.875 38.4372V49.6872C1.875 49.9358 1.97377 50.1743 2.14959 50.3501C2.3254 50.5259 2.56386 50.6247 2.8125 50.6247H8.83406C7.9557 52.7012 7.5021 54.9325 7.5 57.1872C7.5 57.4358 7.59877 57.6743 7.77459 57.8501C7.9504 58.0259 8.18886 58.1247 8.4375 58.1247H51.5625C51.8111 58.1247 52.0496 58.0259 52.2254 57.8501C52.4012 57.6743 52.5 57.4358 52.5 57.1872C52.5 52.7116 50.7221 48.4194 47.5574 45.2547C44.3927 42.0901 40.1005 40.3122 35.625 40.3122ZM34.5 42.1872L32.9391 50.6247H27.0628L25.5 42.1872H34.5ZM3.75 39.3747H11.25C11.4351 39.3744 11.6161 39.3196 11.7703 39.2172L15.9375 36.4393V38.4372C15.9375 38.6858 16.0363 38.9243 16.2121 39.1001C16.3879 39.2759 16.6264 39.3747 16.875 39.3747H18.75V48.7497H3.75V39.3747ZM9.40312 56.2497C9.52191 54.2932 10.032 52.3805 10.9031 50.6247H19.6875C19.9361 50.6247 20.1746 50.5259 20.3504 50.3501C20.5262 50.1743 20.625 49.9358 20.625 49.6872V42.6653C21.5994 42.4167 22.5963 42.266 23.6006 42.2153L25.3603 51.7328C25.4002 51.9483 25.5143 52.143 25.6828 52.2831C25.8514 52.4232 26.0637 52.4998 26.2828 52.4997H33.7172C33.9363 52.4998 34.1486 52.4232 34.3172 52.2831C34.4857 52.143 34.5998 51.9483 34.6397 51.7328L36.3984 42.2247C40.0755 42.4074 43.5562 43.9387 46.1754 46.526C48.7945 49.1134 50.3683 52.5751 50.5959 56.2497H9.40312Z" fill="#1B2029"/>
<path d="M50.625 9.375H54.375V11.25H50.625V9.375Z" fill="#1B2029"/>
<path d="M2.8125 11.25H12.8438L18.2325 14.8425C18.3737 14.9359 18.5375 14.9894 18.7066 14.9973C18.8757 15.0051 19.0437 14.967 19.1929 14.887C19.3421 14.8071 19.4669 14.6882 19.554 14.543C19.641 14.3978 19.6872 14.2318 19.6875 14.0625V11.25H21.5625C21.8111 11.25 22.0496 11.1512 22.2254 10.9754C22.4012 10.7996 22.5 10.5611 22.5 10.3125V2.8125C22.5 2.56386 22.4012 2.3254 22.2254 2.14959C22.0496 1.97377 21.8111 1.875 21.5625 1.875H2.8125C2.56386 1.875 2.3254 1.97377 2.14959 2.14959C1.97377 2.3254 1.875 2.56386 1.875 2.8125V10.3125C1.875 10.5611 1.97377 10.7996 2.14959 10.9754C2.3254 11.1512 2.56386 11.25 2.8125 11.25ZM3.75 3.75H20.625V9.375H18.75C18.5014 9.375 18.2629 9.47377 18.0871 9.64959C17.9113 9.8254 17.8125 10.0639 17.8125 10.3125V12.3103L13.6453 9.5325C13.4911 9.43007 13.3101 9.37529 13.125 9.375H3.75V3.75Z" fill="#1B2029"/>
<path d="M5.625 5.625H9.375V7.5H5.625V5.625Z" fill="#1B2029"/>
<path d="M11.25 5.625H15V7.5H11.25V5.625Z" fill="#1B2029"/>
<path d="M16.875 5.625H18.75V7.5H16.875V5.625Z" fill="#1B2029"/>
<path d="M5.625 45H7.5V46.875H5.625V45Z" fill="#1B2029"/>
<path d="M9.375 45H13.125V46.875H9.375V45Z" fill="#1B2029"/>
<path d="M15 45H16.875V46.875H15V45Z" fill="#1B2029"/>
<path d="M11.25 41.25H16.875V43.125H11.25V41.25Z" fill="#1B2029"/>
<path d="M5.625 41.25H9.375V43.125H5.625V41.25Z" fill="#1B2029"/>
</svg>
