<svg width="60" height="60" viewBox="0 0 60 60" fill="none" xmlns="http://www.w3.org/2000/svg">
<path d="M51.8972 25.3294L48.75 22.9688V22.2525C49.6176 21.6493 50.3264 20.8452 50.8161 19.9089C51.3059 18.9725 51.5619 17.9317 51.5625 16.875V15.9375H52.5C52.9973 15.9375 53.4742 15.74 53.8258 15.3883C54.1775 15.0367 54.375 14.5598 54.375 14.0625V13.125C54.375 12.6277 54.1775 12.1508 53.8258 11.7992C53.4742 11.4475 52.9973 11.25 52.5 11.25H52.3922C53.0182 10.6401 53.516 9.91125 53.8565 9.1063C54.197 8.30135 54.3733 7.4365 54.375 6.5625V2.8125C54.375 2.56386 54.2762 2.3254 54.1004 2.14959C53.9246 1.97377 53.6861 1.875 53.4375 1.875H42.1875C40.4476 1.87699 38.7796 2.56903 37.5493 3.7993C36.319 5.02958 35.627 6.69763 35.625 8.4375V10.3125C35.625 11.0584 35.9213 11.7738 36.4488 12.3012C36.9762 12.8287 37.6916 13.125 38.4375 13.125H37.5C37.0027 13.125 36.5258 13.3225 36.1742 13.6742C35.8225 14.0258 35.625 14.5027 35.625 15V15.9375C35.625 16.4348 35.8225 16.9117 36.1742 17.2633C36.5258 17.615 37.0027 17.8125 37.5 17.8125H38.5125C38.6411 18.7004 38.9503 19.5525 39.4212 20.3162C39.892 21.0798 40.5144 21.7388 41.25 22.2525V22.9688L38.5697 24.9797C38.0045 23.9463 37.172 23.0838 36.1591 22.4826C35.1462 21.8814 33.9903 21.5636 32.8125 21.5625H27.1875C26.0097 21.5636 24.8538 21.8814 23.8409 22.4826C22.828 23.0838 21.9954 23.9463 21.4303 24.9797L18.75 22.9688V22.2525C19.6176 21.6493 20.3264 20.8452 20.8161 19.9089C21.3059 18.9725 21.5619 17.9317 21.5625 16.875H22.5C22.9973 16.875 23.4742 16.6775 23.8258 16.3258C24.1775 15.9742 24.375 15.4973 24.375 15V14.0625C24.375 13.5652 24.1775 13.0883 23.8258 12.7367C23.4742 12.385 22.9973 12.1875 22.5 12.1875H21.5625V11.9269C22.4277 11.3244 23.1351 10.5223 23.6247 9.58857C24.1142 8.6548 24.3716 7.61682 24.375 6.5625V2.8125C24.375 2.56386 24.2762 2.3254 24.1004 2.14959C23.9246 1.97377 23.6861 1.875 23.4375 1.875H12.1875C10.4476 1.87699 8.77958 2.56903 7.5493 3.7993C6.31903 5.02958 5.62699 6.69763 5.625 8.4375V10.3125C5.62624 10.7145 5.71424 11.1115 5.88299 11.4763C6.05175 11.8412 6.29728 12.1653 6.60281 12.4266C6.30848 12.5869 6.06252 12.8233 5.89055 13.111C5.71857 13.3987 5.62688 13.7273 5.625 14.0625V15C5.625 15.4973 5.82254 15.9742 6.17417 16.3258C6.52581 16.6775 7.00272 16.875 7.5 16.875H8.4375C8.43816 17.9317 8.69426 18.9725 9.18397 19.9088C9.67368 20.8452 10.3825 21.6492 11.25 22.2525V22.9688L8.10375 25.3284C6.42403 25.4126 4.84088 26.139 3.68159 27.3574C2.52231 28.5759 1.87554 30.1932 1.875 31.875V37.5C1.875 37.7486 1.97377 37.9871 2.14959 38.1629C2.3254 38.3387 2.56386 38.4375 2.8125 38.4375H24.6225C25.0652 39.0714 25.6161 39.6223 26.25 40.065V42.6562L23.1028 45.0169C21.4239 45.1026 19.8419 45.8294 18.6831 47.0473C17.5243 48.2652 16.8771 49.8814 16.875 51.5625V57.1875C16.875 57.4361 16.9738 57.6746 17.1496 57.8504C17.3254 58.0262 17.5639 58.125 17.8125 58.125H42.1875C42.4361 58.125 42.6746 58.0262 42.8504 57.8504C43.0262 57.6746 43.125 57.4361 43.125 57.1875V51.5625C43.1229 49.8814 42.4757 48.2652 41.3169 47.0473C40.1581 45.8294 38.5761 45.1026 36.8972 45.0169L33.75 42.6562V40.065C34.3839 39.6223 34.9348 39.0714 35.3775 38.4375H57.1875C57.4361 38.4375 57.6746 38.3387 57.8504 38.1629C58.0262 37.9871 58.125 37.7486 58.125 37.5V31.875C58.1229 30.1939 57.4757 28.5777 56.3169 27.3598C55.1581 26.1419 53.5761 25.4151 51.8972 25.3294ZM52.5 14.0625H51.5625V13.125H52.5V14.0625ZM37.5 10.3125V8.4375C37.5015 7.19475 37.9958 6.00334 38.8746 5.12458C39.7533 4.24583 40.9448 3.75149 42.1875 3.75H52.5V6.5625C52.4989 7.28444 52.3311 7.99636 52.0096 8.64277C51.6881 9.28917 51.2216 9.85258 50.6466 10.2891L47.9484 9.60938C47.8263 9.57862 47.6993 9.57278 47.5749 9.5922C47.4505 9.61161 47.3313 9.65589 47.2243 9.72239C47.1174 9.78889 47.025 9.87624 46.9526 9.97924C46.8802 10.0822 46.8292 10.1988 46.8028 10.3219C46.7086 10.7775 46.4969 11.2005 46.1888 11.5491C45.7437 11.9978 45.1729 12.3008 44.5519 12.4181C44.7104 12.1468 44.8422 11.8608 44.9456 11.5641C45.114 10.799 45.1289 10.0081 44.9897 9.23719C44.9566 9.01489 44.8449 8.81186 44.6747 8.66507C44.5045 8.51829 44.2872 8.43753 44.0625 8.4375H43.125C42.9796 8.43736 42.8361 8.47106 42.7059 8.53594L38.9559 10.4109C38.8001 10.4888 38.669 10.6086 38.5775 10.7568C38.4859 10.905 38.4374 11.0758 38.4375 11.25C38.1889 11.25 37.9504 11.1512 37.7746 10.9754C37.5988 10.7996 37.5 10.5611 37.5 10.3125ZM37.5 15H38.4375V15.9375H37.5V15ZM40.3125 16.875V11.8294L43.2103 10.3809C43.2231 10.5691 43.2121 10.7581 43.1775 10.9434C43.0443 11.3032 42.8544 11.6393 42.615 11.9391C42.4047 12.1474 42.2617 12.414 42.2045 12.7045C42.1473 12.995 42.1786 13.2959 42.2944 13.5684C42.4284 13.7913 42.6159 13.9772 42.8398 14.1095C43.0637 14.2417 43.317 14.3161 43.5769 14.3259C44.3114 14.3849 45.0499 14.2804 45.7393 14.0201C46.4286 13.7598 47.0518 13.35 47.5641 12.8203C47.881 12.4708 48.1402 12.073 48.3319 11.6419L49.6875 11.9812V16.875C49.6875 18.1182 49.1936 19.3105 48.3146 20.1896C47.4355 21.0686 46.2432 21.5625 45 21.5625C43.7568 21.5625 42.5645 21.0686 41.6854 20.1896C40.8064 19.3105 40.3125 18.1182 40.3125 16.875ZM42.75 24.1875C42.8664 24.1002 42.9609 23.9869 43.026 23.8568C43.0911 23.7266 43.125 23.583 43.125 23.4375V23.1562C44.3478 23.525 45.6522 23.525 46.875 23.1562V23.4375C46.875 23.583 46.9089 23.7266 46.974 23.8568C47.0391 23.9869 47.1336 24.1002 47.25 24.1875L49.8591 26.1441L45 28.92L40.1409 26.1441L42.75 24.1875ZM22.5 28.125C22.5015 26.8823 22.9958 25.6908 23.8746 24.8121C24.7533 23.9333 25.9448 23.439 27.1875 23.4375H32.8125C34.0552 23.439 35.2467 23.9333 36.1254 24.8121C37.0042 25.6908 37.4985 26.8823 37.5 28.125V28.6744L36.5625 29.6119V29.0625C36.5624 28.8534 36.4925 28.6503 36.3637 28.4855C36.2349 28.3207 36.0548 28.2037 35.8519 28.1531L28.3519 26.2781C28.1351 26.2238 27.906 26.2488 27.7059 26.3484L23.9559 28.2234C23.8001 28.3013 23.669 28.4211 23.5775 28.5693C23.4859 28.7175 23.4374 28.8883 23.4375 29.0625V29.6119L22.5 28.6744V28.125ZM36.5625 32.8125H37.5V33.75H36.5625V32.8125ZM22.5 33.75V32.8125H23.4375V33.75H22.5ZM22.5 14.0625V15H21.5625V14.0625H22.5ZM7.5 8.4375C7.50149 7.19475 7.99583 6.00334 8.87458 5.12458C9.75334 4.24583 10.9448 3.75149 12.1875 3.75H22.5V6.5625C22.4989 7.28444 22.3311 7.99636 22.0096 8.64277C21.6881 9.28917 21.2216 9.85258 20.6466 10.2891L17.9484 9.60938C17.8263 9.57862 17.6993 9.57278 17.5749 9.5922C17.4505 9.61161 17.3313 9.65589 17.2243 9.72239C17.1174 9.78889 17.025 9.87624 16.9526 9.97924C16.8802 10.0822 16.8292 10.1988 16.8028 10.3219C16.7086 10.7775 16.4969 11.2005 16.1887 11.5491C15.7437 11.9978 15.1729 12.3008 14.5519 12.4181C14.7104 12.1468 14.8422 11.8608 14.9456 11.5641C15.114 10.799 15.1289 10.0081 14.9897 9.23719C14.9567 9.01489 14.8449 8.81186 14.6747 8.66507C14.5045 8.51829 14.2872 8.43753 14.0625 8.4375H13.125C12.9796 8.43736 12.8361 8.47106 12.7059 8.53594L8.95594 10.4109C8.80009 10.4888 8.66903 10.6086 8.57746 10.7568C8.48588 10.905 8.43742 11.0758 8.4375 11.25C8.18886 11.25 7.9504 11.1512 7.77459 10.9754C7.59877 10.7996 7.5 10.5611 7.5 10.3125V8.4375ZM7.5 15V14.0625H8.4375V15H7.5ZM10.3125 16.875V11.8294L13.2103 10.3809C13.2231 10.5691 13.2121 10.7581 13.1775 10.9434C13.0443 11.3032 12.8544 11.6393 12.615 11.9391C12.4047 12.1474 12.2617 12.414 12.2045 12.7045C12.1473 12.995 12.1786 13.2959 12.2944 13.5684C12.4284 13.7913 12.6159 13.9772 12.8398 14.1095C13.0637 14.2417 13.317 14.3161 13.5769 14.3259C14.3114 14.3848 15.0498 14.2803 15.7392 14.02C16.4286 13.7597 17.0518 13.35 17.5641 12.8203C17.881 12.4708 18.1402 12.073 18.3319 11.6419L19.6875 11.9812V16.875C19.6875 18.1182 19.1936 19.3105 18.3146 20.1896C17.4355 21.0686 16.2432 21.5625 15 21.5625C13.7568 21.5625 12.5645 21.0686 11.6854 20.1896C10.8064 19.3105 10.3125 18.1182 10.3125 16.875ZM12.75 24.1875C12.8664 24.1002 12.9609 23.9869 13.026 23.8568C13.0911 23.7266 13.125 23.583 13.125 23.4375V23.1562C14.3478 23.525 15.6522 23.525 16.875 23.1562V23.4375C16.875 23.583 16.9089 23.7266 16.974 23.8568C17.0391 23.9869 17.1336 24.1002 17.25 24.1875L19.8591 26.1441L15 28.92L10.1409 26.1441L12.75 24.1875ZM3.75 36.5625V31.875C3.75215 30.6738 4.21447 29.519 5.04187 28.6482C5.86928 27.7774 6.99889 27.2567 8.19844 27.1931L14.5312 30.8137C14.6729 30.8946 14.8332 30.9372 14.9963 30.9372C15.1593 30.9372 15.3196 30.8946 15.4613 30.8137L20.6344 27.8578C20.6344 27.9469 20.6213 28.035 20.6213 28.125V29.0625C20.6213 29.3111 20.7201 29.5495 20.8959 29.7253L22.1438 30.9731C21.7165 31.0558 21.3313 31.2846 21.0542 31.6202C20.7771 31.9558 20.6253 32.3773 20.625 32.8125V33.75C20.625 34.2473 20.8225 34.7242 21.1742 35.0758C21.5258 35.4275 22.0027 35.625 22.5 35.625H23.5125C23.5565 35.942 23.6238 36.2554 23.7141 36.5625H3.75ZM41.25 51.5625V56.25H18.75V51.5625C18.7513 50.3609 19.2134 49.2055 20.0412 48.3344C20.869 47.4634 21.9993 46.943 23.1994 46.8806L29.5312 50.5013C29.6729 50.5821 29.8332 50.6247 29.9963 50.6247C30.1593 50.6247 30.3196 50.5821 30.4613 50.5013L36.7969 46.8806C37.9976 46.9421 39.1289 47.462 39.9575 48.3332C40.786 49.2043 41.2487 50.3602 41.25 51.5625ZM32.25 43.875L34.8591 45.8316L30 48.6075L25.1409 45.8316L27.75 43.875C27.8664 43.7877 27.9609 43.6744 28.026 43.5443C28.0911 43.4141 28.125 43.2705 28.125 43.125V40.9688C29.3478 41.3375 30.6522 41.3375 31.875 40.9688V43.125C31.875 43.2705 31.9089 43.4141 31.974 43.5443C32.0391 43.6744 32.1336 43.7877 32.25 43.875ZM34.6875 34.6875C34.6875 35.9307 34.1936 37.123 33.3146 38.0021C32.4355 38.8811 31.2432 39.375 30 39.375C28.7568 39.375 27.5645 38.8811 26.6854 38.0021C25.8064 37.123 25.3125 35.9307 25.3125 34.6875V29.6419L28.2337 28.1812L34.6875 29.7947V34.6875ZM56.25 36.5625H36.2859C36.3762 36.2554 36.4435 35.942 36.4875 35.625H37.5C37.9973 35.625 38.4742 35.4275 38.8258 35.0758C39.1775 34.7242 39.375 34.2473 39.375 33.75V32.8125C39.3745 32.3768 39.2222 31.9548 38.9444 31.6191C38.6665 31.2835 38.2805 31.055 37.8525 30.9731L39.1003 29.7253C39.2761 29.5495 39.3749 29.3111 39.375 29.0625V28.125C39.375 28.0312 39.3647 27.9469 39.3619 27.8578L44.5312 30.8137C44.6729 30.8946 44.8331 30.9372 44.9963 30.9372C45.1593 30.9372 45.3196 30.8946 45.4613 30.8137L51.7969 27.1931C52.9976 27.2546 54.1289 27.7745 54.9575 28.6457C55.786 29.5168 56.2487 30.6727 56.25 31.875V36.5625Z" fill="#1B2029"/>
<path d="M51.5625 50.625C51.5625 50.8736 51.4637 51.1121 51.2879 51.2879C51.1121 51.4637 50.8736 51.5625 50.625 51.5625H45V53.4375H50.625C51.3709 53.4375 52.0863 53.1412 52.6137 52.6137C53.1412 52.0863 53.4375 51.3709 53.4375 50.625V44.0625H51.5625V50.625Z" fill="#1B2029"/>
<path d="M53.4375 40.3125H51.5625V42.1875H53.4375V40.3125Z" fill="#1B2029"/>
<path d="M8.4375 50.625V44.0625H6.5625V50.625C6.5625 51.3709 6.85882 52.0863 7.38626 52.6137C7.91371 53.1412 8.62908 53.4375 9.375 53.4375H15V51.5625H9.375C9.12636 51.5625 8.8879 51.4637 8.71209 51.2879C8.53627 51.1121 8.4375 50.8736 8.4375 50.625Z" fill="#1B2029"/>
<path d="M8.4375 40.3125H6.5625V42.1875H8.4375V40.3125Z" fill="#1B2029"/>
<path d="M29.0625 15.9375H30.9375V14.0625H32.8125V12.1875H30.9375V10.3125H29.0625V12.1875H27.1875V14.0625H29.0625V15.9375Z" fill="#1B2029"/>
</svg>
